<?xml version="1.0" encoding="utf-8" standalone="no"?>
<!DOCTYPE svg PUBLIC "-//W3C//DTD SVG 1.1//EN"
  "http://www.w3.org/Graphics/SVG/1.1/DTD/svg11.dtd">
<svg xmlns:xlink="http://www.w3.org/1999/xlink" width="500.41375pt" height="377.93875pt" viewBox="0 0 500.41375 377.93875" xmlns="http://www.w3.org/2000/svg" version="1.1">
 <metadata>
  <rdf:RDF xmlns:dc="http://purl.org/dc/elements/1.1/" xmlns:cc="http://creativecommons.org/ns#" xmlns:rdf="http://www.w3.org/1999/02/22-rdf-syntax-ns#">
   <cc:Work>
    <dc:type rdf:resource="http://purl.org/dc/dcmitype/StillImage"/>
    <dc:date>2024-08-22T09:15:28.253031</dc:date>
    <dc:format>image/svg+xml</dc:format>
    <dc:creator>
     <cc:Agent>
      <dc:title>Matplotlib v3.8.4, https://matplotlib.org/</dc:title>
     </cc:Agent>
    </dc:creator>
   </cc:Work>
  </rdf:RDF>
 </metadata>
 <defs>
  <style type="text/css">*{stroke-linejoin: round; stroke-linecap: butt}</style>
 </defs>
 <g id="figure_1">
  <g id="patch_1">
   <path d="M 0 377.93875 
L 500.41375 377.93875 
L 500.41375 0 
L 0 0 
z
" style="fill: #ffffff"/>
  </g>
  <g id="axes_1">
   <g id="patch_2">
    <path d="M 50.41375 154.8 
L 496.81375 154.8 
L 496.81375 3.6 
L 50.41375 3.6 
z
" style="fill: #ffffff"/>
   </g>
   <g id="matplotlib.axis_1">
    <g id="xtick_1">
     <g id="line2d_1">
      <defs>
       <path id="ma61e8e12ca" d="M 0 0 
L 0 3.5 
" style="stroke: #000000; stroke-width: 0.8"/>
      </defs>
      <g>
       <use xlink:href="#ma61e8e12ca" x="70.704659" y="154.8" style="stroke: #000000; stroke-width: 0.8"/>
      </g>
     </g>
    </g>
    <g id="xtick_2">
     <g id="line2d_2">
      <g>
       <use xlink:href="#ma61e8e12ca" x="145.228244" y="154.8" style="stroke: #000000; stroke-width: 0.8"/>
      </g>
     </g>
    </g>
    <g id="xtick_3">
     <g id="line2d_3">
      <g>
       <use xlink:href="#ma61e8e12ca" x="219.751829" y="154.8" style="stroke: #000000; stroke-width: 0.8"/>
      </g>
     </g>
    </g>
    <g id="xtick_4">
     <g id="line2d_4">
      <g>
       <use xlink:href="#ma61e8e12ca" x="294.275414" y="154.8" style="stroke: #000000; stroke-width: 0.8"/>
      </g>
     </g>
    </g>
    <g id="xtick_5">
     <g id="line2d_5">
      <g>
       <use xlink:href="#ma61e8e12ca" x="368.798999" y="154.8" style="stroke: #000000; stroke-width: 0.8"/>
      </g>
     </g>
    </g>
    <g id="xtick_6">
     <g id="line2d_6">
      <g>
       <use xlink:href="#ma61e8e12ca" x="443.322584" y="154.8" style="stroke: #000000; stroke-width: 0.8"/>
      </g>
     </g>
    </g>
   </g>
   <g id="matplotlib.axis_2">
    <g id="ytick_1">
     <g id="line2d_7">
      <defs>
       <path id="m3c2539b2e7" d="M 0 0 
L -3.5 0 
" style="stroke: #000000; stroke-width: 0.8"/>
      </defs>
      <g>
       <use xlink:href="#m3c2539b2e7" x="50.41375" y="147.927311" style="stroke: #000000; stroke-width: 0.8"/>
      </g>
     </g>
     <g id="text_1">
      <!-- 0.0 -->
      <g transform="translate(21.149375 153.246218) scale(0.14 -0.14)">
       <defs>
        <path id="DejaVuSans-30" d="M 2034 4250 
Q 1547 4250 1301 3770 
Q 1056 3291 1056 2328 
Q 1056 1369 1301 889 
Q 1547 409 2034 409 
Q 2525 409 2770 889 
Q 3016 1369 3016 2328 
Q 3016 3291 2770 3770 
Q 2525 4250 2034 4250 
z
M 2034 4750 
Q 2819 4750 3233 4129 
Q 3647 3509 3647 2328 
Q 3647 1150 3233 529 
Q 2819 -91 2034 -91 
Q 1250 -91 836 529 
Q 422 1150 422 2328 
Q 422 3509 836 4129 
Q 1250 4750 2034 4750 
z
" transform="scale(0.015625)"/>
        <path id="DejaVuSans-2e" d="M 684 794 
L 1344 794 
L 1344 0 
L 684 0 
L 684 794 
z
" transform="scale(0.015625)"/>
       </defs>
       <use xlink:href="#DejaVuSans-30"/>
       <use xlink:href="#DejaVuSans-2e" x="63.623047"/>
       <use xlink:href="#DejaVuSans-30" x="95.410156"/>
      </g>
     </g>
    </g>
    <g id="ytick_2">
     <g id="line2d_8">
      <g>
       <use xlink:href="#m3c2539b2e7" x="50.41375" y="102.10909" style="stroke: #000000; stroke-width: 0.8"/>
      </g>
     </g>
     <g id="text_2">
      <!-- 0.2 -->
      <g transform="translate(21.149375 107.427996) scale(0.14 -0.14)">
       <defs>
        <path id="DejaVuSans-32" d="M 1228 531 
L 3431 531 
L 3431 0 
L 469 0 
L 469 531 
Q 828 903 1448 1529 
Q 2069 2156 2228 2338 
Q 2531 2678 2651 2914 
Q 2772 3150 2772 3378 
Q 2772 3750 2511 3984 
Q 2250 4219 1831 4219 
Q 1534 4219 1204 4116 
Q 875 4013 500 3803 
L 500 4441 
Q 881 4594 1212 4672 
Q 1544 4750 1819 4750 
Q 2544 4750 2975 4387 
Q 3406 4025 3406 3419 
Q 3406 3131 3298 2873 
Q 3191 2616 2906 2266 
Q 2828 2175 2409 1742 
Q 1991 1309 1228 531 
z
" transform="scale(0.015625)"/>
       </defs>
       <use xlink:href="#DejaVuSans-30"/>
       <use xlink:href="#DejaVuSans-2e" x="63.623047"/>
       <use xlink:href="#DejaVuSans-32" x="95.410156"/>
      </g>
     </g>
    </g>
    <g id="ytick_3">
     <g id="line2d_9">
      <g>
       <use xlink:href="#m3c2539b2e7" x="50.41375" y="56.290868" style="stroke: #000000; stroke-width: 0.8"/>
      </g>
     </g>
     <g id="text_3">
      <!-- 0.4 -->
      <g transform="translate(21.149375 61.609775) scale(0.14 -0.14)">
       <defs>
        <path id="DejaVuSans-34" d="M 2419 4116 
L 825 1625 
L 2419 1625 
L 2419 4116 
z
M 2253 4666 
L 3047 4666 
L 3047 1625 
L 3713 1625 
L 3713 1100 
L 3047 1100 
L 3047 0 
L 2419 0 
L 2419 1100 
L 313 1100 
L 313 1709 
L 2253 4666 
z
" transform="scale(0.015625)"/>
       </defs>
       <use xlink:href="#DejaVuSans-30"/>
       <use xlink:href="#DejaVuSans-2e" x="63.623047"/>
       <use xlink:href="#DejaVuSans-34" x="95.410156"/>
      </g>
     </g>
    </g>
    <g id="ytick_4">
     <g id="line2d_10">
      <g>
       <use xlink:href="#m3c2539b2e7" x="50.41375" y="10.472647" style="stroke: #000000; stroke-width: 0.8"/>
      </g>
     </g>
     <g id="text_4">
      <!-- 0.6 -->
      <g transform="translate(21.149375 15.791553) scale(0.14 -0.14)">
       <defs>
        <path id="DejaVuSans-36" d="M 2113 2584 
Q 1688 2584 1439 2293 
Q 1191 2003 1191 1497 
Q 1191 994 1439 701 
Q 1688 409 2113 409 
Q 2538 409 2786 701 
Q 3034 994 3034 1497 
Q 3034 2003 2786 2293 
Q 2538 2584 2113 2584 
z
M 3366 4563 
L 3366 3988 
Q 3128 4100 2886 4159 
Q 2644 4219 2406 4219 
Q 1781 4219 1451 3797 
Q 1122 3375 1075 2522 
Q 1259 2794 1537 2939 
Q 1816 3084 2150 3084 
Q 2853 3084 3261 2657 
Q 3669 2231 3669 1497 
Q 3669 778 3244 343 
Q 2819 -91 2113 -91 
Q 1303 -91 875 529 
Q 447 1150 447 2328 
Q 447 3434 972 4092 
Q 1497 4750 2381 4750 
Q 2619 4750 2861 4703 
Q 3103 4656 3366 4563 
z
" transform="scale(0.015625)"/>
       </defs>
       <use xlink:href="#DejaVuSans-30"/>
       <use xlink:href="#DejaVuSans-2e" x="63.623047"/>
       <use xlink:href="#DejaVuSans-36" x="95.410156"/>
      </g>
     </g>
    </g>
    <g id="text_5">
     <!-- Tumor size -->
     <g transform="translate(14.237813 116.629219) rotate(-90) scale(0.14 -0.14)">
      <defs>
       <path id="DejaVuSans-54" d="M -19 4666 
L 3928 4666 
L 3928 4134 
L 2272 4134 
L 2272 0 
L 1638 0 
L 1638 4134 
L -19 4134 
L -19 4666 
z
" transform="scale(0.015625)"/>
       <path id="DejaVuSans-75" d="M 544 1381 
L 544 3500 
L 1119 3500 
L 1119 1403 
Q 1119 906 1312 657 
Q 1506 409 1894 409 
Q 2359 409 2629 706 
Q 2900 1003 2900 1516 
L 2900 3500 
L 3475 3500 
L 3475 0 
L 2900 0 
L 2900 538 
Q 2691 219 2414 64 
Q 2138 -91 1772 -91 
Q 1169 -91 856 284 
Q 544 659 544 1381 
z
M 1991 3584 
L 1991 3584 
z
" transform="scale(0.015625)"/>
       <path id="DejaVuSans-6d" d="M 3328 2828 
Q 3544 3216 3844 3400 
Q 4144 3584 4550 3584 
Q 5097 3584 5394 3201 
Q 5691 2819 5691 2113 
L 5691 0 
L 5113 0 
L 5113 2094 
Q 5113 2597 4934 2840 
Q 4756 3084 4391 3084 
Q 3944 3084 3684 2787 
Q 3425 2491 3425 1978 
L 3425 0 
L 2847 0 
L 2847 2094 
Q 2847 2600 2669 2842 
Q 2491 3084 2119 3084 
Q 1678 3084 1418 2786 
Q 1159 2488 1159 1978 
L 1159 0 
L 581 0 
L 581 3500 
L 1159 3500 
L 1159 2956 
Q 1356 3278 1631 3431 
Q 1906 3584 2284 3584 
Q 2666 3584 2933 3390 
Q 3200 3197 3328 2828 
z
" transform="scale(0.015625)"/>
       <path id="DejaVuSans-6f" d="M 1959 3097 
Q 1497 3097 1228 2736 
Q 959 2375 959 1747 
Q 959 1119 1226 758 
Q 1494 397 1959 397 
Q 2419 397 2687 759 
Q 2956 1122 2956 1747 
Q 2956 2369 2687 2733 
Q 2419 3097 1959 3097 
z
M 1959 3584 
Q 2709 3584 3137 3096 
Q 3566 2609 3566 1747 
Q 3566 888 3137 398 
Q 2709 -91 1959 -91 
Q 1206 -91 779 398 
Q 353 888 353 1747 
Q 353 2609 779 3096 
Q 1206 3584 1959 3584 
z
" transform="scale(0.015625)"/>
       <path id="DejaVuSans-72" d="M 2631 2963 
Q 2534 3019 2420 3045 
Q 2306 3072 2169 3072 
Q 1681 3072 1420 2755 
Q 1159 2438 1159 1844 
L 1159 0 
L 581 0 
L 581 3500 
L 1159 3500 
L 1159 2956 
Q 1341 3275 1631 3429 
Q 1922 3584 2338 3584 
Q 2397 3584 2469 3576 
Q 2541 3569 2628 3553 
L 2631 2963 
z
" transform="scale(0.015625)"/>
       <path id="DejaVuSans-20" transform="scale(0.015625)"/>
       <path id="DejaVuSans-73" d="M 2834 3397 
L 2834 2853 
Q 2591 2978 2328 3040 
Q 2066 3103 1784 3103 
Q 1356 3103 1142 2972 
Q 928 2841 928 2578 
Q 928 2378 1081 2264 
Q 1234 2150 1697 2047 
L 1894 2003 
Q 2506 1872 2764 1633 
Q 3022 1394 3022 966 
Q 3022 478 2636 193 
Q 2250 -91 1575 -91 
Q 1294 -91 989 -36 
Q 684 19 347 128 
L 347 722 
Q 666 556 975 473 
Q 1284 391 1588 391 
Q 1994 391 2212 530 
Q 2431 669 2431 922 
Q 2431 1156 2273 1281 
Q 2116 1406 1581 1522 
L 1381 1569 
Q 847 1681 609 1914 
Q 372 2147 372 2553 
Q 372 3047 722 3315 
Q 1072 3584 1716 3584 
Q 2034 3584 2315 3537 
Q 2597 3491 2834 3397 
z
" transform="scale(0.015625)"/>
       <path id="DejaVuSans-69" d="M 603 3500 
L 1178 3500 
L 1178 0 
L 603 0 
L 603 3500 
z
M 603 4863 
L 1178 4863 
L 1178 4134 
L 603 4134 
L 603 4863 
z
" transform="scale(0.015625)"/>
       <path id="DejaVuSans-7a" d="M 353 3500 
L 3084 3500 
L 3084 2975 
L 922 459 
L 3084 459 
L 3084 0 
L 275 0 
L 275 525 
L 2438 3041 
L 353 3041 
L 353 3500 
z
" transform="scale(0.015625)"/>
       <path id="DejaVuSans-65" d="M 3597 1894 
L 3597 1613 
L 953 1613 
Q 991 1019 1311 708 
Q 1631 397 2203 397 
Q 2534 397 2845 478 
Q 3156 559 3463 722 
L 3463 178 
Q 3153 47 2828 -22 
Q 2503 -91 2169 -91 
Q 1331 -91 842 396 
Q 353 884 353 1716 
Q 353 2575 817 3079 
Q 1281 3584 2069 3584 
Q 2775 3584 3186 3129 
Q 3597 2675 3597 1894 
z
M 3022 2063 
Q 3016 2534 2758 2815 
Q 2500 3097 2075 3097 
Q 1594 3097 1305 2825 
Q 1016 2553 972 2059 
L 3022 2063 
z
" transform="scale(0.015625)"/>
      </defs>
      <use xlink:href="#DejaVuSans-54"/>
      <use xlink:href="#DejaVuSans-75" x="45.958984"/>
      <use xlink:href="#DejaVuSans-6d" x="109.337891"/>
      <use xlink:href="#DejaVuSans-6f" x="206.75"/>
      <use xlink:href="#DejaVuSans-72" x="267.931641"/>
      <use xlink:href="#DejaVuSans-20" x="309.044922"/>
      <use xlink:href="#DejaVuSans-73" x="340.832031"/>
      <use xlink:href="#DejaVuSans-69" x="392.931641"/>
      <use xlink:href="#DejaVuSans-7a" x="420.714844"/>
      <use xlink:href="#DejaVuSans-65" x="473.205078"/>
     </g>
    </g>
   </g>
   <g id="line2d_11">
    <path d="M 70.704659 147.69822 
L 75.618744 147.776398 
L 85.205458 147.72074 
L 100.084837 147.331397 
L 117.875107 146.72704 
L 128.852431 146.127272 
L 137.989023 145.410926 
L 145.873618 144.574426 
L 152.844554 143.615267 
L 159.126893 142.529746 
L 164.875642 141.313568 
L 170.207059 139.960666 
L 175.207592 138.464182 
L 179.948782 136.814631 
L 184.488759 135.000597 
L 188.876708 133.008338 
L 193.157342 130.820576 
L 197.370906 128.416914 
L 201.559131 125.770724 
L 205.765243 122.848586 
L 210.036934 119.607841 
L 214.433826 115.989929 
L 219.037893 111.909369 
L 223.971354 107.233988 
L 229.080691 102.107927 
L 229.082182 144.123881 
L 229.192477 144.093052 
L 231.873835 143.468076 
L 233.553597 143.105363 
L 233.555087 143.57633 
L 233.665382 143.559191 
L 233.702644 143.553306 
L 233.704135 143.977641 
L 233.814429 143.966074 
L 233.851691 143.962012 
L 233.853182 144.344214 
L 233.963477 144.337045 
L 234.000738 144.334425 
L 234.002229 144.678585 
L 234.112524 144.674846 
L 234.149786 144.673355 
L 234.151276 144.983185 
L 234.261571 144.982085 
L 234.44788 144.977809 
L 234.531346 145.257542 
L 234.559665 145.257355 
L 234.596927 145.257003 
L 234.708712 145.510248 
L 234.745974 145.510447 
L 234.85776 145.739699 
L 234.895021 145.740303 
L 235.006807 145.947695 
L 235.044069 145.948584 
L 235.155854 146.136086 
L 235.342163 146.140306 
L 235.453948 146.308858 
L 235.49121 146.309656 
L 235.602995 146.461996 
L 235.640257 146.462906 
L 235.752043 146.600524 
L 235.789304 146.601492 
L 235.90109 146.725752 
L 236.236446 146.842804 
L 236.348231 146.94326 
L 236.53454 147.035166 
L 236.646326 147.117022 
L 236.832635 147.191948 
L 236.94442 147.258573 
L 237.428823 147.373971 
L 237.540609 147.422591 
L 238.025012 147.505605 
L 238.136797 147.541187 
L 238.621201 147.627595 
L 238.732986 147.651387 
L 242.137223 147.507727 
L 245.070472 147.178257 
L 247.43585 146.692531 
L 249.641748 146.011286 
L 251.966884 145.054084 
L 254.837533 143.615714 
L 267.007234 137.243202 
L 279.056207 131.397816 
L 283.521661 128.903774 
L 287.760562 126.281065 
L 291.954749 123.423183 
L 296.193651 120.263621 
L 300.547319 116.738168 
L 305.093258 112.766859 
L 309.941762 108.230635 
L 315.288084 102.916427 
L 321.561479 96.354215 
L 330.478971 86.669237 
L 344.200254 71.786622 
L 351.130947 64.619791 
L 357.221015 58.637078 
L 362.932502 53.334462 
L 368.463643 48.500338 
L 373.926222 44.019893 
L 379.396253 39.819964 
L 384.930374 35.850668 
L 390.57479 32.075778 
L 396.369744 28.46795 
L 402.349517 25.00747 
L 408.548389 21.677833 
L 414.99915 18.46628 
L 421.733101 15.36325 
L 428.786013 12.359375 
L 433.516771 10.472759 
L 433.516771 10.472759 
" clip-path="url(#p57179be8f3)" style="fill: none; stroke: #1f77b4; stroke-opacity: 0.5; stroke-width: 1.5; stroke-linecap: square"/>
   </g>
   <g id="line2d_12">
    <path d="M 70.704659 147.69822 
L 75.618744 147.776398 
L 85.205458 147.72074 
L 100.084837 147.331397 
L 117.875107 146.72704 
L 128.852431 146.127272 
L 137.989023 145.410926 
L 145.873618 144.574426 
L 152.844554 143.615267 
L 159.126893 142.529746 
L 164.875642 141.313568 
L 170.207059 139.960666 
L 175.207592 138.464182 
L 179.948782 136.814631 
L 184.488759 135.000597 
L 188.876708 133.008338 
L 193.157342 130.820576 
L 197.370906 128.416914 
L 201.559131 125.770724 
L 205.765243 122.848586 
L 210.036934 119.607841 
L 214.433826 115.989929 
L 219.037893 111.909369 
L 223.971354 107.233988 
L 229.080691 102.107927 
L 229.082182 144.123881 
L 229.192477 144.093055 
L 231.811235 143.485489 
L 233.553597 143.117275 
L 233.555087 143.591158 
L 233.665382 143.574807 
L 233.702644 143.569195 
L 233.704135 143.995992 
L 233.814429 143.985331 
L 233.851691 143.981582 
L 233.853182 144.365822 
L 233.963477 144.359668 
L 234.000738 144.3574 
L 234.002229 144.7032 
L 234.112524 144.700579 
L 234.149786 144.699475 
L 234.261571 145.010687 
L 234.44788 145.008563 
L 234.559665 145.290246 
L 234.596927 145.290364 
L 234.708712 145.545507 
L 234.745974 145.546204 
L 234.85776 145.777131 
L 234.895021 145.778258 
L 235.006807 145.987117 
L 235.044069 145.988551 
L 235.155854 146.177325 
L 235.342163 146.18445 
L 235.453948 146.35394 
L 235.49121 146.355351 
L 235.602995 146.508468 
L 235.640257 146.510008 
L 235.752043 146.648252 
L 235.789304 146.649864 
L 235.90109 146.77461 
L 236.236446 146.896098 
L 236.348231 146.996595 
L 236.53454 147.089868 
L 236.646326 147.17157 
L 236.832635 147.247708 
L 236.94442 147.314012 
L 237.428823 147.433414 
L 237.540609 147.481315 
L 238.174059 147.603284 
L 238.285845 147.634351 
L 245.09581 147.621962 
L 250.40487 147.341357 
L 256.058229 146.800488 
L 278.887784 144.193507 
L 285.715635 143.148717 
L 291.763969 142.001207 
L 297.314486 140.724392 
L 302.487913 139.308213 
L 307.364736 137.744291 
L 312.009046 136.022607 
L 316.474499 134.130862 
L 320.808791 132.053493 
L 325.053655 129.77226 
L 329.250823 127.263548 
L 333.442029 124.498034 
L 337.670497 121.439653 
L 341.989884 118.03849 
L 346.467261 114.226402 
L 351.199509 109.90048 
L 356.343127 104.89048 
L 362.211114 98.854007 
L 369.733525 90.774598 
L 389.762483 69.10512 
L 396.311616 62.447577 
L 402.239222 56.73452 
L 407.871714 51.611666 
L 413.368574 46.910678 
L 418.826681 42.534107 
L 424.313108 38.41906 
L 429.88151 34.52018 
L 435.575112 30.805193 
L 441.431175 27.250116 
L 447.483981 23.836357 
L 453.766319 20.549235 
L 460.31098 17.376796 
L 467.152245 14.308887 
L 474.324395 11.337671 
L 476.522841 10.473113 
L 476.522841 10.473113 
" clip-path="url(#p57179be8f3)" style="fill: none; stroke-dasharray: 5.55,2.4; stroke-dashoffset: 0; stroke: #1f77b4; stroke-opacity: 0.5; stroke-width: 1.5"/>
   </g>
   <g id="line2d_13">
    <defs>
     <path id="mb1aedf16e9" d="M 0 -3 
L -0.673542 -0.927051 
L -2.85317 -0.927051 
L -1.089814 0.354102 
L -1.763356 2.427051 
L -0 1.145898 
L 1.763356 2.427051 
L 1.089814 0.354102 
L 2.85317 -0.927051 
L 0.673542 -0.927051 
z
" style="stroke: #ff0000; stroke-linejoin: bevel"/>
    </defs>
    <g clip-path="url(#p57179be8f3)">
     <use xlink:href="#mb1aedf16e9" x="229.079201" y="102.109459" style="fill: #ff0000; stroke: #ff0000; stroke-linejoin: bevel"/>
    </g>
   </g>
   <g id="line2d_14">
    <defs>
     <path id="m3ba85ecbd2" d="M 0 1.5 
C 0.397805 1.5 0.77937 1.341951 1.06066 1.06066 
C 1.341951 0.77937 1.5 0.397805 1.5 0 
C 1.5 -0.397805 1.341951 -0.77937 1.06066 -1.06066 
C 0.77937 -1.341951 0.397805 -1.5 0 -1.5 
C -0.397805 -1.5 -0.77937 -1.341951 -1.06066 -1.06066 
C -1.341951 -0.77937 -1.5 -0.397805 -1.5 0 
C -1.5 0.397805 -1.341951 0.77937 -1.06066 1.06066 
C -0.77937 1.341951 -0.397805 1.5 0 1.5 
z
" style="stroke: #0000ff"/>
    </defs>
    <g clip-path="url(#p57179be8f3)">
     <use xlink:href="#m3ba85ecbd2" x="233.550616" y="143.117911" style="fill: #0000ff; stroke: #0000ff"/>
    </g>
   </g>
   <g id="line2d_15">
    <path d="M 70.704659 147.69822 
L 76.609908 147.763214 
L 83.734363 147.655052 
L 94.604373 147.19727 
L 108.555188 146.459254 
L 116.703597 145.798662 
L 123.564238 145.024326 
L 129.555934 144.12861 
L 134.905237 143.10774 
L 139.765665 141.956766 
L 144.246023 140.669652 
L 148.428287 139.238672 
L 152.378037 137.65351 
L 156.145949 135.902567 
L 159.778229 133.969716 
L 163.312137 131.83706 
L 166.783446 129.481648 
L 170.226435 126.875255 
L 173.673896 123.984577 
L 177.164581 120.764774 
L 180.743204 117.157728 
L 184.466402 113.084569 
L 188.417642 108.426196 
L 192.735539 102.983187 
L 193.406251 102.10855 
L 193.407742 144.123857 
L 193.518037 144.087522 
L 196.074196 143.372145 
L 197.879157 142.894722 
L 197.880647 143.465822 
L 197.990942 143.446202 
L 198.028204 143.439434 
L 198.029694 143.944333 
L 198.139989 143.932572 
L 198.177251 143.928377 
L 198.178742 144.374575 
L 198.289037 144.368799 
L 198.326298 144.366571 
L 198.327789 144.760755 
L 198.438084 144.759462 
L 198.475345 144.758713 
L 198.587131 145.108832 
L 198.77344 145.108943 
L 198.885225 145.420023 
L 198.922487 145.420619 
L 199.034272 145.697469 
L 199.071534 145.698688 
L 199.18332 145.94486 
L 199.220581 145.946496 
L 199.332367 146.165213 
L 199.369628 146.167106 
L 199.481414 146.361285 
L 199.667723 146.369981 
L 199.779508 146.540918 
L 199.81677 146.542507 
L 199.928555 146.694212 
L 199.965817 146.695848 
L 200.077603 146.830403 
L 200.114864 146.832023 
L 200.22665 146.951302 
L 200.562006 147.064841 
L 200.673791 147.15747 
L 200.8601 147.241507 
L 200.971886 147.314262 
L 201.158195 147.380275 
L 201.26998 147.43736 
L 201.754383 147.534713 
L 201.866169 147.574076 
L 202.499619 147.666674 
L 202.611404 147.690972 
L 206.841363 147.549007 
L 209.162028 147.199228 
L 211.09815 146.684445 
L 212.953788 145.958327 
L 214.95251 144.929589 
L 217.483331 143.358265 
L 228.35036 136.328329 
L 235.792285 131.724277 
L 239.613855 129.068749 
L 243.152235 126.338515 
L 246.623543 123.377283 
L 250.12168 120.097982 
L 253.712227 116.423359 
L 257.462253 112.26227 
L 261.462679 107.484565 
L 265.868514 101.867082 
L 271.015113 94.929952 
L 278.161924 84.886145 
L 290.365907 67.726213 
L 296.06547 60.131894 
L 301.073455 53.822997 
L 305.760989 48.270626 
L 310.290532 43.24657 
L 314.755986 38.623243 
L 319.219948 34.319892 
L 323.730116 30.279761 
L 328.32673 26.460083 
L 333.045564 22.827821 
L 337.916425 19.359339 
L 342.969124 16.034842 
L 348.23198 12.839026 
L 352.418715 10.472727 
L 352.418715 10.472727 
" clip-path="url(#p57179be8f3)" style="fill: none; stroke: #ff7f0e; stroke-opacity: 0.5; stroke-width: 1.5; stroke-linecap: square"/>
   </g>
   <g id="line2d_16">
    <path d="M 70.704659 147.69822 
L 76.609908 147.763214 
L 83.734363 147.655052 
L 94.604373 147.19727 
L 108.555188 146.459254 
L 116.703597 145.798662 
L 123.564238 145.024326 
L 129.555934 144.12861 
L 134.905237 143.10774 
L 139.765665 141.956766 
L 144.246023 140.669652 
L 148.428287 139.238672 
L 152.378037 137.65351 
L 156.145949 135.902567 
L 159.778229 133.969716 
L 163.312137 131.83706 
L 166.783446 129.481648 
L 170.226435 126.875255 
L 173.673896 123.984577 
L 177.164581 120.764774 
L 180.743204 117.157728 
L 184.466402 113.084569 
L 188.417642 108.426196 
L 192.735539 102.983187 
L 193.406251 102.10855 
L 193.407742 144.123857 
L 193.518037 144.087524 
L 196.020539 143.389719 
L 197.879157 142.907333 
L 197.880647 143.48123 
L 197.990942 143.462538 
L 198.028204 143.456093 
L 198.029694 143.963225 
L 198.139989 143.952539 
L 198.177251 143.94872 
L 198.178742 144.396631 
L 198.289037 144.392068 
L 198.326298 144.390263 
L 198.420198 144.785811 
L 198.438084 144.785727 
L 198.475345 144.785445 
L 198.587131 145.137812 
L 198.77344 145.140535 
L 198.885225 145.453421 
L 198.922487 145.45459 
L 199.034272 145.732981 
L 199.071534 145.734804 
L 199.18332 145.98227 
L 199.220581 145.984538 
L 199.332367 146.204321 
L 199.369628 146.206873 
L 199.481414 146.40191 
L 199.667723 146.414113 
L 199.779508 146.585491 
L 199.81677 146.58782 
L 199.928555 146.739806 
L 199.965817 146.742198 
L 200.077603 146.876886 
L 200.114864 146.879275 
L 200.22665 146.998552 
L 200.562006 147.116803 
L 200.673791 147.208916 
L 200.8601 147.294038 
L 200.971886 147.366122 
L 201.456289 147.496126 
L 201.568074 147.545017 
L 202.052478 147.664232 
L 202.164263 147.693953 
L 209.054714 147.740809 
L 213.974761 147.488816 
L 219.956024 146.928993 
L 238.376763 144.911284 
L 244.36995 143.977376 
L 249.64622 142.933479 
L 254.441067 141.760975 
L 258.869259 140.451458 
L 263.009789 138.996929 
L 266.926749 137.38653 
L 270.670814 135.60751 
L 274.285208 133.644051 
L 277.807192 131.477339 
L 281.271048 129.08446 
L 284.712548 126.435216 
L 288.16448 123.495179 
L 291.667088 120.216912 
L 295.265087 116.540905 
L 299.018095 112.383744 
L 303.01703 107.615806 
L 307.413922 102.018142 
L 312.536673 95.121708 
L 319.585114 85.223992 
L 332.130414 67.584757 
L 337.812092 60.020793 
L 342.812625 53.727355 
L 347.497177 48.184304 
L 352.02523 43.167467 
L 356.489193 38.550989 
L 360.953156 34.252687 
L 365.464814 30.216083 
L 370.064409 26.398673 
L 374.784733 22.76987 
L 379.658576 19.303721 
L 384.714256 15.981597 
L 389.980092 12.788177 
L 394.078889 10.473101 
L 394.078889 10.473101 
" clip-path="url(#p57179be8f3)" style="fill: none; stroke-dasharray: 5.55,2.4; stroke-dashoffset: 0; stroke: #ff7f0e; stroke-opacity: 0.5; stroke-width: 1.5"/>
   </g>
   <g id="line2d_17">
    <g clip-path="url(#p57179be8f3)">
     <use xlink:href="#mb1aedf16e9" x="193.404761" y="102.110502" style="fill: #ff0000; stroke: #ff0000; stroke-linejoin: bevel"/>
    </g>
   </g>
   <g id="line2d_18">
    <g clip-path="url(#p57179be8f3)">
     <use xlink:href="#m3ba85ecbd2" x="197.876176" y="142.90812" style="fill: #0000ff; stroke: #0000ff"/>
    </g>
   </g>
   <g id="line2d_19">
    <path d="M 70.704659 147.69822 
L 77.997537 147.709462 
L 82.862437 147.499634 
L 92.106342 146.802252 
L 100.557317 146.01013 
L 106.218128 145.256068 
L 111.054709 144.391662 
L 115.344286 143.402783 
L 119.228456 142.282061 
L 122.801116 141.02199 
L 126.132321 139.612914 
L 129.277216 138.042264 
L 132.282007 136.293291 
L 135.182465 134.34728 
L 138.00989 132.18146 
L 140.794091 129.767016 
L 143.564878 127.067291 
L 146.349079 124.040549 
L 149.176504 120.634148 
L 152.085904 116.775391 
L 155.123486 112.370487 
L 158.3593 107.277858 
L 161.4252 102.108675 
L 161.42669 144.123761 
L 161.536985 144.079605 
L 164.082711 143.190706 
L 165.898106 142.568044 
L 165.899596 143.295154 
L 166.009891 143.272018 
L 166.047153 143.263982 
L 166.048643 143.889395 
L 166.158938 143.878012 
L 166.1962 143.873833 
L 166.19769 144.411523 
L 166.307985 144.408623 
L 166.345247 144.407238 
L 166.457032 144.872378 
L 166.494294 144.872966 
L 166.60608 145.277013 
L 166.792389 145.284462 
L 166.904174 145.633606 
L 166.941436 145.635691 
L 167.053221 145.938503 
L 167.090483 145.941227 
L 167.202268 146.20358 
L 167.23953 146.206654 
L 167.351315 146.433734 
L 167.388577 146.436945 
L 167.500363 146.633322 
L 167.686672 146.647537 
L 167.798457 146.815191 
L 167.835719 146.817689 
L 167.947504 146.962619 
L 167.984766 146.965025 
L 168.096551 147.090224 
L 168.28286 147.202626 
L 168.394646 147.295899 
L 168.730002 147.384487 
L 168.841787 147.452918 
L 169.177143 147.565751 
L 169.288929 147.609779 
L 169.922379 147.710506 
L 170.034165 147.734861 
L 174.50558 147.615853 
L 176.379103 147.270024 
L 177.95155 146.754768 
L 179.46885 146.020022 
L 181.10986 144.969278 
L 183.168201 143.368095 
L 198.70935 130.328895 
L 201.705198 127.438137 
L 204.55498 124.376868 
L 207.391347 120.999848 
L 210.287334 117.200851 
L 213.301067 112.873962 
L 216.504091 107.877846 
L 220.009681 101.986341 
L 224.042897 94.756154 
L 229.317676 84.808042 
L 241.797396 61.111646 
L 246.282225 53.180538 
L 250.282651 46.549097 
L 254.047583 40.732022 
L 257.691786 35.505748 
L 261.285313 30.737071 
L 264.878841 26.335165 
L 268.50963 22.237336 
L 272.210471 18.394436 
L 276.011174 14.767608 
L 279.940057 11.325579 
L 280.966992 10.473267 
L 280.966992 10.473267 
" clip-path="url(#p57179be8f3)" style="fill: none; stroke: #2ca02c; stroke-opacity: 0.5; stroke-width: 1.5; stroke-linecap: square"/>
   </g>
   <g id="line2d_20">
    <path d="M 70.704659 147.69822 
L 77.997537 147.709462 
L 82.862437 147.499634 
L 92.106342 146.802252 
L 100.557317 146.01013 
L 106.218128 145.256068 
L 111.054709 144.391662 
L 115.344286 143.402783 
L 119.228456 142.282061 
L 122.801116 141.02199 
L 126.132321 139.612914 
L 129.277216 138.042264 
L 132.282007 136.293291 
L 135.182465 134.34728 
L 138.00989 132.18146 
L 140.794091 129.767016 
L 143.564878 127.067291 
L 146.349079 124.040549 
L 149.176504 120.634148 
L 152.085904 116.775391 
L 155.123486 112.370487 
L 158.3593 107.277858 
L 161.4252 102.108675 
L 161.42669 144.123761 
L 161.536985 144.079607 
L 164.026073 143.213238 
L 165.898106 142.583191 
L 165.899596 143.312604 
L 166.009891 143.290792 
L 166.047153 143.283226 
L 166.048643 143.910211 
L 166.158938 143.900353 
L 166.1962 143.896713 
L 166.19769 144.43532 
L 166.307985 144.434123 
L 166.345247 144.433339 
L 166.457032 144.900668 
L 166.494294 144.901911 
L 166.60608 145.307758 
L 166.792389 145.318884 
L 166.904174 145.6692 
L 166.941436 145.672091 
L 167.053221 145.975782 
L 167.090483 145.979345 
L 167.202268 146.242312 
L 167.23953 146.246251 
L 167.351315 146.473708 
L 167.388577 146.477807 
L 167.500363 146.674347 
L 167.686672 146.693272 
L 167.798457 146.860507 
L 167.835719 146.863993 
L 167.947504 147.008368 
L 167.984766 147.011767 
L 168.096551 147.13629 
L 168.28286 147.249896 
L 168.394646 147.34229 
L 168.730002 147.435674 
L 168.841787 147.502668 
L 169.177143 147.615648 
L 169.288929 147.658178 
L 170.369521 147.807817 
L 170.482797 147.82391 
L 176.960387 147.821257 
L 181.785043 147.576016 
L 191.990303 146.731814 
L 200.307135 145.910304 
L 205.839766 145.139133 
L 210.586919 144.257089 
L 214.810915 143.249648 
L 218.644409 142.109599 
L 222.178317 140.828805 
L 225.479712 139.3973 
L 228.60225 137.801883 
L 231.589155 136.02629 
L 234.476199 134.050989 
L 237.296171 131.851007 
L 240.077392 129.397343 
L 242.848178 126.653634 
L 245.636851 123.575661 
L 248.474709 120.107627 
L 251.399015 116.177192 
L 254.460443 111.682896 
L 257.733519 106.473882 
L 261.347913 100.291423 
L 265.591286 92.572918 
L 271.596397 81.137941 
L 281.034063 63.188662 
L 285.70073 54.823483 
L 289.780151 47.958155 
L 293.585326 41.982718 
L 297.248905 36.638222 
L 300.849885 31.774359 
L 304.43894 27.297274 
L 308.057806 23.136328 
L 311.740761 19.239149 
L 315.517617 15.565609 
L 319.4152 12.084502 
L 321.337909 10.473174 
L 321.337909 10.473174 
" clip-path="url(#p57179be8f3)" style="fill: none; stroke-dasharray: 5.55,2.4; stroke-dashoffset: 0; stroke: #2ca02c; stroke-opacity: 0.5; stroke-width: 1.5"/>
   </g>
   <g id="line2d_21">
    <g clip-path="url(#p57179be8f3)">
     <use xlink:href="#mb1aedf16e9" x="161.42371" y="102.111261" style="fill: #ff0000; stroke: #ff0000; stroke-linejoin: bevel"/>
    </g>
   </g>
   <g id="line2d_22">
    <g clip-path="url(#p57179be8f3)">
     <use xlink:href="#m3ba85ecbd2" x="165.895125" y="142.58422" style="fill: #0000ff; stroke: #0000ff"/>
    </g>
   </g>
   <g id="line2d_23">
    <path d="M 70.704659 147.69822 
L 78.158508 147.550019 
L 81.555293 147.175975 
L 88.447234 146.131825 
L 93.258477 145.222348 
L 96.852004 144.319311 
L 99.986466 143.305405 
L 102.825815 142.155604 
L 105.450535 140.854385 
L 107.915776 139.384644 
L 110.261778 137.726824 
L 112.522824 135.855483 
L 114.725741 133.741528 
L 116.897358 131.34619 
L 119.058542 128.627163 
L 121.23314 125.528673 
L 123.445 121.983549 
L 125.723931 117.902518 
L 128.104215 113.173873 
L 130.640998 107.627096 
L 132.970605 102.107754 
L 132.972095 144.123521 
L 133.08239 144.067237 
L 136.334599 142.5463 
L 137.44351 141.992943 
L 137.445001 142.999281 
L 137.555296 142.970781 
L 137.592558 142.960769 
L 137.594048 143.789343 
L 137.704343 143.780091 
L 137.741605 143.776412 
L 137.85339 144.461756 
L 137.890652 144.462268 
L 138.002437 145.034636 
L 138.039699 145.037788 
L 138.151484 145.515101 
L 138.337793 145.535331 
L 138.449579 145.929636 
L 138.486841 145.934086 
L 138.598626 146.262324 
L 138.635888 146.267219 
L 138.747673 146.540134 
L 138.784935 146.545079 
L 138.89672 146.771753 
L 138.933982 146.776493 
L 139.045767 146.964581 
L 139.232076 146.984366 
L 139.343862 147.137311 
L 139.381124 147.140573 
L 139.492909 147.267462 
L 139.679218 147.378108 
L 139.791003 147.465304 
L 140.126359 147.547394 
L 140.238145 147.605998 
L 140.573501 147.697488 
L 140.685286 147.73108 
L 142.063973 147.848271 
L 142.177248 147.856801 
L 145.390705 147.682772 
L 146.870744 147.3545 
L 148.100383 146.85425 
L 149.288289 146.125711 
L 150.574566 145.065071 
L 152.170861 143.439691 
L 155.062376 140.107791 
L 164.443405 128.964597 
L 166.773012 125.638838 
L 169.035548 122.015751 
L 171.326403 117.919766 
L 173.705196 113.201242 
L 176.236017 107.674633 
L 179.011276 101.063442 
L 182.21728 92.827034 
L 186.459163 81.264815 
L 195.908753 55.336426 
L 199.496319 46.263563 
L 202.681457 38.799516 
L 205.669852 32.352393 
L 208.555406 26.647491 
L 211.393264 21.522803 
L 214.223669 16.865425 
L 217.076432 12.595442 
L 218.601185 10.474575 
L 218.601185 10.474575 
" clip-path="url(#p57179be8f3)" style="fill: none; stroke: #d62728; stroke-opacity: 0.5; stroke-width: 1.5; stroke-linecap: square"/>
   </g>
   <g id="line2d_24">
    <path d="M 70.704659 147.69822 
L 78.158508 147.550019 
L 81.555293 147.175975 
L 88.447234 146.131825 
L 93.258477 145.222348 
L 96.852004 144.319311 
L 99.986466 143.305405 
L 102.825815 142.155604 
L 105.450535 140.854385 
L 107.915776 139.384644 
L 110.261778 137.726824 
L 112.522824 135.855483 
L 114.725741 133.741528 
L 116.897358 131.34619 
L 119.058542 128.627163 
L 121.23314 125.528673 
L 123.445 121.983549 
L 125.723931 117.902518 
L 128.104215 113.173873 
L 130.640998 107.627096 
L 132.970605 102.107754 
L 132.972095 144.123521 
L 133.08239 144.067239 
L 136.088672 142.670874 
L 137.44351 142.020265 
L 137.445001 143.025644 
L 137.555296 143.000301 
L 137.592558 142.991435 
L 137.594048 143.818216 
L 137.704343 143.812352 
L 137.741605 143.809898 
L 137.85339 144.496307 
L 137.890652 144.498101 
L 138.002437 145.071073 
L 138.039699 145.075547 
L 138.151484 145.553062 
L 138.337793 145.580443 
L 138.449579 145.973814 
L 138.486841 145.979777 
L 138.598626 146.306876 
L 138.635888 146.31327 
L 138.747673 146.584872 
L 138.784935 146.591295 
L 138.89672 146.816512 
L 138.933982 146.822703 
L 139.045767 147.009216 
L 139.232076 147.036475 
L 139.343862 147.186898 
L 139.530171 147.320458 
L 139.641956 147.423218 
L 139.828265 147.515462 
L 139.94005 147.585352 
L 140.573501 147.745201 
L 140.685286 147.776114 
L 146.217917 147.904237 
L 151.844448 147.740788 
L 163.880007 147.059836 
L 169.80016 146.52267 
L 174.481732 145.880179 
L 178.441915 145.117269 
L 181.89981 144.228656 
L 184.989558 143.208215 
L 187.805059 142.04649 
L 190.413384 140.731191 
L 192.8667 139.245521 
L 195.20376 137.569943 
L 197.458844 135.678146 
L 199.65878 133.540016 
L 201.827416 131.119107 
L 203.9886 128.369184 
L 206.166179 125.233061 
L 208.384001 121.64209 
L 210.670385 117.508335 
L 213.062592 112.713446 
L 215.61726 107.081715 
L 218.42829 100.32941 
L 221.699875 91.866508 
L 226.153405 79.670964 
L 234.626737 56.395402 
L 238.278392 47.09332 
L 241.491849 39.50208 
L 244.49515 32.966862 
L 247.388155 27.195571 
L 250.228994 22.01769 
L 253.05791 17.318357 
L 255.907691 13.011489 
L 257.723086 10.474013 
L 257.723086 10.474013 
" clip-path="url(#p57179be8f3)" style="fill: none; stroke-dasharray: 5.55,2.4; stroke-dashoffset: 0; stroke: #d62728; stroke-opacity: 0.5; stroke-width: 1.5"/>
   </g>
   <g id="line2d_25">
    <g clip-path="url(#p57179be8f3)">
     <use xlink:href="#mb1aedf16e9" x="132.969114" y="102.111405" style="fill: #ff0000; stroke: #ff0000; stroke-linejoin: bevel"/>
    </g>
   </g>
   <g id="line2d_26">
    <g clip-path="url(#p57179be8f3)">
     <use xlink:href="#m3ba85ecbd2" x="137.440529" y="142.021724" style="fill: #0000ff; stroke: #0000ff"/>
    </g>
   </g>
   <g id="line2d_27">
    <path d="M 70.704659 147.69822 
L 76.387828 147.311513 
L 78.328422 146.808891 
L 81.38836 145.752883 
L 84.64206 144.424829 
L 86.895653 143.268648 
L 88.837738 142.023383 
L 90.623323 140.613876 
L 92.316499 138.992005 
L 93.951546 137.114414 
L 95.553803 134.930862 
L 97.144137 132.38071 
L 98.738941 129.39456 
L 100.357594 125.880875 
L 102.019469 121.728356 
L 103.748417 116.793523 
L 105.580206 110.872544 
L 107.571477 103.65803 
L 107.973904 102.108179 
L 107.975394 144.12326 
L 108.085689 144.044901 
L 111.828264 141.26151 
L 112.446809 140.708664 
L 112.4483 142.36475 
L 112.558595 142.327185 
L 112.595857 142.313664 
L 112.63908 143.5705 
L 112.707642 143.569504 
L 112.744904 143.568197 
L 112.856689 144.541192 
L 112.893951 144.546532 
L 113.005736 145.29931 
L 113.042998 145.307798 
L 113.154784 145.889428 
L 113.341093 145.932125 
L 113.452878 146.373326 
L 113.49014 146.381215 
L 113.601925 146.721649 
L 113.639187 146.729057 
L 113.750972 146.991501 
L 113.788234 146.998038 
L 113.900019 147.200223 
L 113.937281 147.205741 
L 114.049067 147.361439 
L 114.384423 147.500606 
L 114.496208 147.590248 
L 114.682517 147.66314 
L 114.794302 147.716627 
L 115.5768 147.835993 
L 115.688585 147.851346 
L 119.951334 147.67497 
L 120.952931 147.329304 
L 121.823367 146.789937 
L 122.704236 145.971743 
L 123.708814 144.716111 
L 125.036824 142.666656 
L 127.706259 138.033166 
L 131.202905 131.629593 
L 133.124123 127.619876 
L 134.875428 123.440795 
L 136.614808 118.701395 
L 138.416788 113.127729 
L 140.343968 106.420331 
L 142.488757 98.118569 
L 145.05833 87.233383 
L 149.143713 68.796037 
L 153.52719 49.341996 
L 156.289035 38.093355 
L 158.717013 29.111874 
L 160.989982 21.535765 
L 163.183957 14.980773 
L 164.850304 10.476203 
L 164.850304 10.476203 
" clip-path="url(#p57179be8f3)" style="fill: none; stroke: #9467bd; stroke-opacity: 0.5; stroke-width: 1.5; stroke-linecap: square"/>
   </g>
   <g id="line2d_28">
    <path d="M 70.704659 147.69822 
L 76.387828 147.311513 
L 78.328422 146.808891 
L 81.38836 145.752883 
L 84.64206 144.424829 
L 86.895653 143.268648 
L 88.837738 142.023383 
L 90.623323 140.613876 
L 92.316499 138.992005 
L 93.951546 137.114414 
L 95.553803 134.930862 
L 97.144137 132.38071 
L 98.738941 129.39456 
L 100.357594 125.880875 
L 102.019469 121.728356 
L 103.748417 116.793523 
L 105.580206 110.872544 
L 107.571477 103.65803 
L 107.973904 102.108179 
L 107.975394 144.12326 
L 108.085689 144.044903 
L 112.446809 140.868133 
L 112.4483 142.477849 
L 112.558595 142.459984 
L 112.595857 142.453665 
L 112.707642 143.68687 
L 112.744904 143.69189 
L 112.856689 144.645563 
L 112.893951 144.656425 
L 113.005736 145.39264 
L 113.042998 145.405928 
L 113.154784 145.97331 
L 113.341093 146.038242 
L 113.452878 146.463306 
L 113.49014 146.475256 
L 113.601925 146.801955 
L 113.639187 146.812863 
L 113.750972 147.063587 
L 113.788234 147.07316 
L 113.900019 147.265311 
L 113.937281 147.273485 
L 114.049067 147.42056 
L 114.384423 147.565023 
L 114.496208 147.646501 
L 115.129659 147.813093 
L 115.241444 147.838746 
L 119.845511 147.924704 
L 129.842105 147.795643 
L 138.67464 147.517225 
L 143.928553 147.136068 
L 147.852965 146.636614 
L 151.011274 146.0168 
L 153.674747 145.272302 
L 155.999883 144.394841 
L 158.083562 143.37295 
L 159.994347 142.188992 
L 161.779932 140.820668 
L 163.47907 139.236574 
L 165.120079 137.399161 
L 166.725317 135.263124 
L 168.315651 132.770294 
L 169.908965 129.850967 
L 171.523146 126.418673 
L 173.177569 122.365129 
L 174.896083 117.549753 
L 176.709987 111.786134 
L 178.674429 104.77839 
L 180.88927 96.018809 
L 183.618324 84.259758 
L 193.568713 40.479657 
L 196.051838 31.076178 
L 198.353127 23.211385 
L 200.560515 16.442257 
L 202.72319 10.513774 
L 202.738095 10.475218 
L 202.738095 10.475218 
" clip-path="url(#p57179be8f3)" style="fill: none; stroke-dasharray: 5.55,2.4; stroke-dashoffset: 0; stroke: #9467bd; stroke-opacity: 0.5; stroke-width: 1.5"/>
   </g>
   <g id="line2d_29">
    <g clip-path="url(#p57179be8f3)">
     <use xlink:href="#mb1aedf16e9" x="107.972413" y="102.113973" style="fill: #ff0000; stroke: #ff0000; stroke-linejoin: bevel"/>
    </g>
   </g>
   <g id="line2d_30">
    <g clip-path="url(#p57179be8f3)">
     <use xlink:href="#m3ba85ecbd2" x="112.443829" y="140.870224" style="fill: #0000ff; stroke: #0000ff"/>
    </g>
   </g>
   <g id="line2d_31">
    <path d="M 70.704659 147.69822 
L 74.085049 147.128446 
L 75.040441 146.594526 
L 76.216423 145.662095 
L 77.84849 144.064938 
L 79.413485 142.236758 
L 80.713177 140.375762 
L 81.902573 138.276903 
L 83.050236 135.788981 
L 84.190447 132.770034 
L 85.342582 129.069778 
L 86.526016 124.494892 
L 87.760127 118.803396 
L 89.074723 111.649292 
L 90.52048 102.495197 
L 90.578609 102.100496 
L 90.580099 144.122089 
L 90.690394 144.003555 
L 92.31948 142.084079 
L 93.538686 140.290853 
L 94.696782 138.181502 
L 95.051514 137.442971 
L 95.053005 140.897415 
L 95.1633 140.847503 
L 95.200561 140.828421 
L 95.312347 143.112859 
L 95.349609 143.119847 
L 95.461394 144.654663 
L 95.498656 144.670459 
L 95.610441 145.702445 
L 95.647703 145.719093 
L 95.759488 146.413426 
L 95.945797 146.477879 
L 96.057583 146.929814 
L 96.094844 146.939024 
L 96.20663 147.243866 
L 96.243892 147.250597 
L 96.355677 147.456553 
L 96.392939 147.461091 
L 96.504724 147.600565 
L 96.84008 147.702825 
L 96.951866 147.766478 
L 97.436269 147.859437 
L 97.548054 147.874895 
L 99.821024 147.907392 
L 99.93579 147.910259 
L 101.739261 147.746138 
L 102.43233 147.435865 
L 103.037462 146.912296 
L 103.675384 146.046119 
L 104.439996 144.600336 
L 105.502702 142.06264 
L 107.258478 137.224339 
L 108.94122 131.990126 
L 110.297549 127.033199 
L 111.582336 121.469798 
L 112.88948 114.786277 
L 114.286052 106.43904 
L 115.86148 95.607526 
L 117.854241 80.239648 
L 123.650685 34.566591 
L 125.485456 22.429313 
L 127.180122 12.663204 
L 127.595964 10.475061 
L 127.595964 10.475061 
" clip-path="url(#p57179be8f3)" style="fill: none; stroke: #e377c2; stroke-opacity: 0.5; stroke-width: 1.5; stroke-linecap: square"/>
   </g>
   <g id="line2d_32">
    <path d="M 70.704659 147.69822 
L 74.085049 147.128446 
L 75.040441 146.594526 
L 76.216423 145.662095 
L 77.84849 144.064938 
L 79.413485 142.236758 
L 80.713177 140.375762 
L 81.902573 138.276903 
L 83.050236 135.788981 
L 84.190447 132.770034 
L 85.342582 129.069778 
L 86.526016 124.494892 
L 87.760127 118.803396 
L 89.074723 111.649292 
L 90.52048 102.495197 
L 90.578609 102.100496 
L 90.580099 144.122089 
L 90.690394 144.003558 
L 92.343327 142.058588 
L 94.282431 139.708261 
L 94.804096 139.460319 
L 95.051514 139.448556 
L 95.1633 142.190308 
L 95.200561 142.221471 
L 95.312347 144.052847 
L 95.349609 144.089885 
L 95.461394 145.314501 
L 95.498656 145.348115 
L 95.610441 146.167521 
L 95.647703 146.194784 
L 95.759488 146.74328 
L 95.945797 146.84341 
L 96.057583 147.185675 
L 96.094844 147.199873 
L 96.20663 147.429066 
L 96.243892 147.439253 
L 96.355677 147.592758 
L 96.541986 147.707753 
L 96.653771 147.776642 
L 99.46033 147.927043 
L 121.790577 147.819398 
L 127.223346 147.583037 
L 130.556041 147.226901 
L 132.997433 146.750604 
L 134.94548 146.149879 
L 136.58947 145.413868 
L 138.035228 144.524304 
L 139.348333 143.454551 
L 140.574991 142.165404 
L 141.747993 140.604142 
L 142.889694 138.705459 
L 144.017981 136.385482 
L 145.146268 133.542148 
L 146.28946 130.039344 
L 147.462461 125.703347 
L 148.681667 120.313424 
L 149.972415 113.560194 
L 151.37793 104.972032 
L 152.990621 93.668476 
L 155.10411 77.137247 
L 160.080795 37.676418 
L 161.967732 24.830725 
L 163.683265 14.635697 
L 164.461291 10.475926 
L 164.461291 10.475926 
" clip-path="url(#p57179be8f3)" style="fill: none; stroke-dasharray: 5.55,2.4; stroke-dashoffset: 0; stroke: #e377c2; stroke-opacity: 0.5; stroke-width: 1.5"/>
   </g>
   <g id="line2d_33">
    <g clip-path="url(#p57179be8f3)">
     <use xlink:href="#mb1aedf16e9" x="90.577118" y="102.110641" style="fill: #ff0000; stroke: #ff0000; stroke-linejoin: bevel"/>
    </g>
   </g>
   <g id="line2d_34">
    <g clip-path="url(#p57179be8f3)">
     <use xlink:href="#m3ba85ecbd2" x="95.048533" y="139.448271" style="fill: #0000ff; stroke: #0000ff"/>
    </g>
   </g>
   <g id="patch_3">
    <path d="M 50.41375 154.8 
L 50.41375 3.6 
" style="fill: none; stroke: #000000; stroke-width: 0.8; stroke-linejoin: miter; stroke-linecap: square"/>
   </g>
   <g id="patch_4">
    <path d="M 496.81375 154.8 
L 496.81375 3.6 
" style="fill: none; stroke: #000000; stroke-width: 0.8; stroke-linejoin: miter; stroke-linecap: square"/>
   </g>
   <g id="patch_5">
    <path d="M 50.41375 154.8 
L 496.81375 154.8 
" style="fill: none; stroke: #000000; stroke-width: 0.8; stroke-linejoin: miter; stroke-linecap: square"/>
   </g>
   <g id="patch_6">
    <path d="M 50.41375 3.6 
L 496.81375 3.6 
" style="fill: none; stroke: #000000; stroke-width: 0.8; stroke-linejoin: miter; stroke-linecap: square"/>
   </g>
  </g>
  <g id="axes_2">
   <g id="patch_7">
    <path d="M 50.41375 336.24 
L 496.81375 336.24 
L 496.81375 185.04 
L 50.41375 185.04 
z
" style="fill: #ffffff"/>
   </g>
   <g id="matplotlib.axis_3">
    <g id="xtick_7">
     <g id="line2d_35">
      <g>
       <use xlink:href="#ma61e8e12ca" x="70.704659" y="336.24" style="stroke: #000000; stroke-width: 0.8"/>
      </g>
     </g>
     <g id="text_6">
      <!-- 0 -->
      <g transform="translate(66.250909 353.877813) scale(0.14 -0.14)">
       <use xlink:href="#DejaVuSans-30"/>
      </g>
     </g>
    </g>
    <g id="xtick_8">
     <g id="line2d_36">
      <g>
       <use xlink:href="#ma61e8e12ca" x="145.228244" y="336.24" style="stroke: #000000; stroke-width: 0.8"/>
      </g>
     </g>
     <g id="text_7">
      <!-- 500 -->
      <g transform="translate(131.866994 353.877813) scale(0.14 -0.14)">
       <defs>
        <path id="DejaVuSans-35" d="M 691 4666 
L 3169 4666 
L 3169 4134 
L 1269 4134 
L 1269 2991 
Q 1406 3038 1543 3061 
Q 1681 3084 1819 3084 
Q 2600 3084 3056 2656 
Q 3513 2228 3513 1497 
Q 3513 744 3044 326 
Q 2575 -91 1722 -91 
Q 1428 -91 1123 -41 
Q 819 9 494 109 
L 494 744 
Q 775 591 1075 516 
Q 1375 441 1709 441 
Q 2250 441 2565 725 
Q 2881 1009 2881 1497 
Q 2881 1984 2565 2268 
Q 2250 2553 1709 2553 
Q 1456 2553 1204 2497 
Q 953 2441 691 2322 
L 691 4666 
z
" transform="scale(0.015625)"/>
       </defs>
       <use xlink:href="#DejaVuSans-35"/>
       <use xlink:href="#DejaVuSans-30" x="63.623047"/>
       <use xlink:href="#DejaVuSans-30" x="127.246094"/>
      </g>
     </g>
    </g>
    <g id="xtick_9">
     <g id="line2d_37">
      <g>
       <use xlink:href="#ma61e8e12ca" x="219.751829" y="336.24" style="stroke: #000000; stroke-width: 0.8"/>
      </g>
     </g>
     <g id="text_8">
      <!-- 1000 -->
      <g transform="translate(201.936829 353.877813) scale(0.14 -0.14)">
       <defs>
        <path id="DejaVuSans-31" d="M 794 531 
L 1825 531 
L 1825 4091 
L 703 3866 
L 703 4441 
L 1819 4666 
L 2450 4666 
L 2450 531 
L 3481 531 
L 3481 0 
L 794 0 
L 794 531 
z
" transform="scale(0.015625)"/>
       </defs>
       <use xlink:href="#DejaVuSans-31"/>
       <use xlink:href="#DejaVuSans-30" x="63.623047"/>
       <use xlink:href="#DejaVuSans-30" x="127.246094"/>
       <use xlink:href="#DejaVuSans-30" x="190.869141"/>
      </g>
     </g>
    </g>
    <g id="xtick_10">
     <g id="line2d_38">
      <g>
       <use xlink:href="#ma61e8e12ca" x="294.275414" y="336.24" style="stroke: #000000; stroke-width: 0.8"/>
      </g>
     </g>
     <g id="text_9">
      <!-- 1500 -->
      <g transform="translate(276.460414 353.877813) scale(0.14 -0.14)">
       <use xlink:href="#DejaVuSans-31"/>
       <use xlink:href="#DejaVuSans-35" x="63.623047"/>
       <use xlink:href="#DejaVuSans-30" x="127.246094"/>
       <use xlink:href="#DejaVuSans-30" x="190.869141"/>
      </g>
     </g>
    </g>
    <g id="xtick_11">
     <g id="line2d_39">
      <g>
       <use xlink:href="#ma61e8e12ca" x="368.798999" y="336.24" style="stroke: #000000; stroke-width: 0.8"/>
      </g>
     </g>
     <g id="text_10">
      <!-- 2000 -->
      <g transform="translate(350.983999 353.877813) scale(0.14 -0.14)">
       <use xlink:href="#DejaVuSans-32"/>
       <use xlink:href="#DejaVuSans-30" x="63.623047"/>
       <use xlink:href="#DejaVuSans-30" x="127.246094"/>
       <use xlink:href="#DejaVuSans-30" x="190.869141"/>
      </g>
     </g>
    </g>
    <g id="xtick_12">
     <g id="line2d_40">
      <g>
       <use xlink:href="#ma61e8e12ca" x="443.322584" y="336.24" style="stroke: #000000; stroke-width: 0.8"/>
      </g>
     </g>
     <g id="text_11">
      <!-- 2500 -->
      <g transform="translate(425.507584 353.877813) scale(0.14 -0.14)">
       <use xlink:href="#DejaVuSans-32"/>
       <use xlink:href="#DejaVuSans-35" x="63.623047"/>
       <use xlink:href="#DejaVuSans-30" x="127.246094"/>
       <use xlink:href="#DejaVuSans-30" x="190.869141"/>
      </g>
     </g>
    </g>
    <g id="text_12">
     <!-- Time (days) -->
     <g transform="translate(232.276562 371.427188) scale(0.14 -0.14)">
      <defs>
       <path id="DejaVuSans-28" d="M 1984 4856 
Q 1566 4138 1362 3434 
Q 1159 2731 1159 2009 
Q 1159 1288 1364 580 
Q 1569 -128 1984 -844 
L 1484 -844 
Q 1016 -109 783 600 
Q 550 1309 550 2009 
Q 550 2706 781 3412 
Q 1013 4119 1484 4856 
L 1984 4856 
z
" transform="scale(0.015625)"/>
       <path id="DejaVuSans-64" d="M 2906 2969 
L 2906 4863 
L 3481 4863 
L 3481 0 
L 2906 0 
L 2906 525 
Q 2725 213 2448 61 
Q 2172 -91 1784 -91 
Q 1150 -91 751 415 
Q 353 922 353 1747 
Q 353 2572 751 3078 
Q 1150 3584 1784 3584 
Q 2172 3584 2448 3432 
Q 2725 3281 2906 2969 
z
M 947 1747 
Q 947 1113 1208 752 
Q 1469 391 1925 391 
Q 2381 391 2643 752 
Q 2906 1113 2906 1747 
Q 2906 2381 2643 2742 
Q 2381 3103 1925 3103 
Q 1469 3103 1208 2742 
Q 947 2381 947 1747 
z
" transform="scale(0.015625)"/>
       <path id="DejaVuSans-61" d="M 2194 1759 
Q 1497 1759 1228 1600 
Q 959 1441 959 1056 
Q 959 750 1161 570 
Q 1363 391 1709 391 
Q 2188 391 2477 730 
Q 2766 1069 2766 1631 
L 2766 1759 
L 2194 1759 
z
M 3341 1997 
L 3341 0 
L 2766 0 
L 2766 531 
Q 2569 213 2275 61 
Q 1981 -91 1556 -91 
Q 1019 -91 701 211 
Q 384 513 384 1019 
Q 384 1609 779 1909 
Q 1175 2209 1959 2209 
L 2766 2209 
L 2766 2266 
Q 2766 2663 2505 2880 
Q 2244 3097 1772 3097 
Q 1472 3097 1187 3025 
Q 903 2953 641 2809 
L 641 3341 
Q 956 3463 1253 3523 
Q 1550 3584 1831 3584 
Q 2591 3584 2966 3190 
Q 3341 2797 3341 1997 
z
" transform="scale(0.015625)"/>
       <path id="DejaVuSans-79" d="M 2059 -325 
Q 1816 -950 1584 -1140 
Q 1353 -1331 966 -1331 
L 506 -1331 
L 506 -850 
L 844 -850 
Q 1081 -850 1212 -737 
Q 1344 -625 1503 -206 
L 1606 56 
L 191 3500 
L 800 3500 
L 1894 763 
L 2988 3500 
L 3597 3500 
L 2059 -325 
z
" transform="scale(0.015625)"/>
       <path id="DejaVuSans-29" d="M 513 4856 
L 1013 4856 
Q 1481 4119 1714 3412 
Q 1947 2706 1947 2009 
Q 1947 1309 1714 600 
Q 1481 -109 1013 -844 
L 513 -844 
Q 928 -128 1133 580 
Q 1338 1288 1338 2009 
Q 1338 2731 1133 3434 
Q 928 4138 513 4856 
z
" transform="scale(0.015625)"/>
      </defs>
      <use xlink:href="#DejaVuSans-54"/>
      <use xlink:href="#DejaVuSans-69" x="57.958984"/>
      <use xlink:href="#DejaVuSans-6d" x="85.742188"/>
      <use xlink:href="#DejaVuSans-65" x="183.154297"/>
      <use xlink:href="#DejaVuSans-20" x="244.677734"/>
      <use xlink:href="#DejaVuSans-28" x="276.464844"/>
      <use xlink:href="#DejaVuSans-64" x="315.478516"/>
      <use xlink:href="#DejaVuSans-61" x="378.955078"/>
      <use xlink:href="#DejaVuSans-79" x="440.234375"/>
      <use xlink:href="#DejaVuSans-73" x="499.414062"/>
      <use xlink:href="#DejaVuSans-29" x="551.513672"/>
     </g>
    </g>
   </g>
   <g id="matplotlib.axis_4">
    <g id="ytick_5">
     <g id="line2d_41">
      <g>
       <use xlink:href="#m3c2539b2e7" x="50.41375" y="329.368795" style="stroke: #000000; stroke-width: 0.8"/>
      </g>
     </g>
     <g id="text_13">
      <!-- 0.0 -->
      <g transform="translate(21.149375 334.687701) scale(0.14 -0.14)">
       <use xlink:href="#DejaVuSans-30"/>
       <use xlink:href="#DejaVuSans-2e" x="63.623047"/>
       <use xlink:href="#DejaVuSans-30" x="95.410156"/>
      </g>
     </g>
    </g>
    <g id="ytick_6">
     <g id="line2d_42">
      <g>
       <use xlink:href="#m3c2539b2e7" x="50.41375" y="279.783058" style="stroke: #000000; stroke-width: 0.8"/>
      </g>
     </g>
     <g id="text_14">
      <!-- 0.2 -->
      <g transform="translate(21.149375 285.101965) scale(0.14 -0.14)">
       <use xlink:href="#DejaVuSans-30"/>
       <use xlink:href="#DejaVuSans-2e" x="63.623047"/>
       <use xlink:href="#DejaVuSans-32" x="95.410156"/>
      </g>
     </g>
    </g>
    <g id="ytick_7">
     <g id="line2d_43">
      <g>
       <use xlink:href="#m3c2539b2e7" x="50.41375" y="230.197322" style="stroke: #000000; stroke-width: 0.8"/>
      </g>
     </g>
     <g id="text_15">
      <!-- 0.4 -->
      <g transform="translate(21.149375 235.516228) scale(0.14 -0.14)">
       <use xlink:href="#DejaVuSans-30"/>
       <use xlink:href="#DejaVuSans-2e" x="63.623047"/>
       <use xlink:href="#DejaVuSans-34" x="95.410156"/>
      </g>
     </g>
    </g>
    <g id="text_16">
     <!-- Stem cell fraction -->
     <g transform="translate(14.237813 322.337344) rotate(-90) scale(0.14 -0.14)">
      <defs>
       <path id="DejaVuSans-53" d="M 3425 4513 
L 3425 3897 
Q 3066 4069 2747 4153 
Q 2428 4238 2131 4238 
Q 1616 4238 1336 4038 
Q 1056 3838 1056 3469 
Q 1056 3159 1242 3001 
Q 1428 2844 1947 2747 
L 2328 2669 
Q 3034 2534 3370 2195 
Q 3706 1856 3706 1288 
Q 3706 609 3251 259 
Q 2797 -91 1919 -91 
Q 1588 -91 1214 -16 
Q 841 59 441 206 
L 441 856 
Q 825 641 1194 531 
Q 1563 422 1919 422 
Q 2459 422 2753 634 
Q 3047 847 3047 1241 
Q 3047 1584 2836 1778 
Q 2625 1972 2144 2069 
L 1759 2144 
Q 1053 2284 737 2584 
Q 422 2884 422 3419 
Q 422 4038 858 4394 
Q 1294 4750 2059 4750 
Q 2388 4750 2728 4690 
Q 3069 4631 3425 4513 
z
" transform="scale(0.015625)"/>
       <path id="DejaVuSans-74" d="M 1172 4494 
L 1172 3500 
L 2356 3500 
L 2356 3053 
L 1172 3053 
L 1172 1153 
Q 1172 725 1289 603 
Q 1406 481 1766 481 
L 2356 481 
L 2356 0 
L 1766 0 
Q 1100 0 847 248 
Q 594 497 594 1153 
L 594 3053 
L 172 3053 
L 172 3500 
L 594 3500 
L 594 4494 
L 1172 4494 
z
" transform="scale(0.015625)"/>
       <path id="DejaVuSans-63" d="M 3122 3366 
L 3122 2828 
Q 2878 2963 2633 3030 
Q 2388 3097 2138 3097 
Q 1578 3097 1268 2742 
Q 959 2388 959 1747 
Q 959 1106 1268 751 
Q 1578 397 2138 397 
Q 2388 397 2633 464 
Q 2878 531 3122 666 
L 3122 134 
Q 2881 22 2623 -34 
Q 2366 -91 2075 -91 
Q 1284 -91 818 406 
Q 353 903 353 1747 
Q 353 2603 823 3093 
Q 1294 3584 2113 3584 
Q 2378 3584 2631 3529 
Q 2884 3475 3122 3366 
z
" transform="scale(0.015625)"/>
       <path id="DejaVuSans-6c" d="M 603 4863 
L 1178 4863 
L 1178 0 
L 603 0 
L 603 4863 
z
" transform="scale(0.015625)"/>
       <path id="DejaVuSans-66" d="M 2375 4863 
L 2375 4384 
L 1825 4384 
Q 1516 4384 1395 4259 
Q 1275 4134 1275 3809 
L 1275 3500 
L 2222 3500 
L 2222 3053 
L 1275 3053 
L 1275 0 
L 697 0 
L 697 3053 
L 147 3053 
L 147 3500 
L 697 3500 
L 697 3744 
Q 697 4328 969 4595 
Q 1241 4863 1831 4863 
L 2375 4863 
z
" transform="scale(0.015625)"/>
       <path id="DejaVuSans-6e" d="M 3513 2113 
L 3513 0 
L 2938 0 
L 2938 2094 
Q 2938 2591 2744 2837 
Q 2550 3084 2163 3084 
Q 1697 3084 1428 2787 
Q 1159 2491 1159 1978 
L 1159 0 
L 581 0 
L 581 3500 
L 1159 3500 
L 1159 2956 
Q 1366 3272 1645 3428 
Q 1925 3584 2291 3584 
Q 2894 3584 3203 3211 
Q 3513 2838 3513 2113 
z
" transform="scale(0.015625)"/>
      </defs>
      <use xlink:href="#DejaVuSans-53"/>
      <use xlink:href="#DejaVuSans-74" x="63.476562"/>
      <use xlink:href="#DejaVuSans-65" x="102.685547"/>
      <use xlink:href="#DejaVuSans-6d" x="164.208984"/>
      <use xlink:href="#DejaVuSans-20" x="261.621094"/>
      <use xlink:href="#DejaVuSans-63" x="293.408203"/>
      <use xlink:href="#DejaVuSans-65" x="348.388672"/>
      <use xlink:href="#DejaVuSans-6c" x="409.912109"/>
      <use xlink:href="#DejaVuSans-6c" x="437.695312"/>
      <use xlink:href="#DejaVuSans-20" x="465.478516"/>
      <use xlink:href="#DejaVuSans-66" x="497.265625"/>
      <use xlink:href="#DejaVuSans-72" x="532.470703"/>
      <use xlink:href="#DejaVuSans-61" x="573.583984"/>
      <use xlink:href="#DejaVuSans-63" x="634.863281"/>
      <use xlink:href="#DejaVuSans-74" x="689.84375"/>
      <use xlink:href="#DejaVuSans-69" x="729.052734"/>
      <use xlink:href="#DejaVuSans-6f" x="756.835938"/>
      <use xlink:href="#DejaVuSans-6e" x="818.017578"/>
     </g>
    </g>
   </g>
   <g id="line2d_44">
    <path d="M 70.704659 326.889508 
L 73.086433 325.800105 
L 76.059924 324.698678 
L 78.233032 324.1047 
L 79.865098 323.883828 
L 81.397303 323.902366 
L 83.127741 324.156061 
L 86.077384 324.860011 
L 89.669421 325.638644 
L 92.823259 326.081792 
L 96.609057 326.37834 
L 101.912156 326.552582 
L 111.913221 326.617273 
L 163.517822 326.559632 
L 201.910883 326.345708 
L 226.363561 325.994643 
L 229.079201 325.939247 
L 229.080691 329.08414 
L 229.189496 325.952835 
L 231.423713 326.111041 
L 233.553597 326.235388 
L 233.665382 325.895673 
L 233.702644 325.952495 
L 233.814429 325.581027 
L 233.850201 325.579788 
L 233.851691 325.641789 
L 233.963477 325.235543 
L 233.999248 325.233007 
L 234.000738 325.300634 
L 234.112524 324.856323 
L 234.148295 324.852367 
L 234.149786 324.926171 
L 234.261571 324.440224 
L 234.446389 324.413671 
L 234.44788 324.494626 
L 234.559665 323.962047 
L 234.595437 323.955588 
L 234.596927 324.043977 
L 234.708712 323.461733 
L 234.744484 323.453448 
L 234.745974 323.549986 
L 234.85776 322.913569 
L 234.893531 322.903304 
L 234.895021 323.008772 
L 235.006807 322.313329 
L 235.042578 322.300925 
L 235.044069 322.416171 
L 235.155854 321.656498 
L 235.340672 321.58525 
L 235.342163 321.712197 
L 235.443515 320.884243 
L 235.48972 320.864378 
L 235.49121 321.003033 
L 235.592562 320.100212 
L 235.638767 320.077011 
L 235.640257 320.228457 
L 235.741609 319.244549 
L 235.787814 319.217823 
L 235.789304 319.38323 
L 235.890657 318.311665 
L 235.936861 318.281243 
L 235.938352 318.461874 
L 236.039704 317.295745 
L 236.234955 317.160865 
L 236.236446 317.359871 
L 236.337798 316.086461 
L 236.384003 316.053064 
L 236.385493 316.270095 
L 236.486845 314.88777 
L 236.53305 314.850542 
L 236.53454 315.087148 
L 236.635892 313.58826 
L 236.682097 313.547227 
L 236.683587 313.80506 
L 236.78494 312.181807 
L 236.831144 312.137082 
L 236.832635 312.417895 
L 236.933987 310.662396 
L 237.129239 310.4768 
L 237.130729 310.784966 
L 237.232081 308.8847 
L 237.278286 308.842169 
L 237.279776 309.17702 
L 237.381128 307.129977 
L 237.427333 307.085108 
L 237.428823 307.448665 
L 237.530175 305.247476 
L 237.57638 305.200945 
L 237.57787 305.595312 
L 237.679223 303.233008 
L 237.725427 303.185691 
L 237.726918 303.613043 
L 237.82827 301.083205 
L 238.023522 300.915591 
L 238.025012 301.380595 
L 238.126364 298.68089 
L 238.172569 298.650528 
L 238.174059 299.1527 
L 238.275411 296.277171 
L 238.321616 296.25047 
L 238.323106 296.792072 
L 238.424458 293.737046 
L 238.470663 293.715893 
L 238.472154 294.299187 
L 238.573506 291.062199 
L 238.61971 291.048777 
L 238.621201 291.676004 
L 238.724043 288.255732 
L 238.984876 288.330292 
L 239.293403 288.680803 
L 239.715207 289.540791 
L 240.315867 291.33089 
L 241.253374 294.917062 
L 245.048115 310.108086 
L 246.289678 313.864728 
L 247.444793 316.678183 
L 248.567118 318.845496 
L 249.690934 320.544986 
L 250.84605 321.896799 
L 252.068236 322.988357 
L 253.399228 323.878853 
L 254.895661 324.609569 
L 256.636532 325.20698 
L 258.739588 325.686159 
L 261.391137 326.052499 
L 264.933988 326.304518 
L 270.175977 326.434991 
L 280.218775 326.422254 
L 305.456933 326.135339 
L 326.685721 325.684792 
L 345.881506 325.055822 
L 365.031086 324.20411 
L 385.441606 323.070086 
L 408.066966 321.585837 
L 433.516771 319.689662 
L 433.516771 319.689662 
" clip-path="url(#pc975f0ded7)" style="fill: none; stroke: #1f77b4; stroke-opacity: 0.5; stroke-width: 1.5; stroke-linecap: square"/>
   </g>
   <g id="line2d_45">
    <path d="M 70.704659 326.889508 
L 73.086433 325.800105 
L 76.059924 324.698678 
L 78.233032 324.1047 
L 79.865098 323.883828 
L 81.397303 323.902366 
L 83.127741 324.156061 
L 86.077384 324.860011 
L 89.669421 325.638644 
L 92.823259 326.081792 
L 96.609057 326.37834 
L 101.912156 326.552582 
L 111.913221 326.617273 
L 163.517822 326.559632 
L 201.910883 326.345708 
L 226.363561 325.994643 
L 229.079201 325.939247 
L 229.080691 329.08414 
L 229.189496 326.010947 
L 231.127109 327.648173 
L 232.195777 328.117169 
L 233.493978 328.435479 
L 233.702644 328.401743 
L 233.704135 328.296957 
L 233.814429 328.314103 
L 234.000738 328.265368 
L 234.002229 328.147215 
L 234.112524 328.162042 
L 234.44788 328.116517 
L 234.44937 327.983462 
L 234.559665 327.99473 
L 234.596927 328.020872 
L 234.598418 327.878374 
L 234.708712 327.888062 
L 234.745974 327.915454 
L 234.747465 327.762543 
L 234.85776 327.770501 
L 234.895021 327.799271 
L 234.896512 327.634885 
L 235.006807 327.640944 
L 235.044069 327.671234 
L 235.045559 327.494209 
L 235.155854 327.498179 
L 235.342163 327.535516 
L 235.343653 327.344301 
L 235.453948 327.346038 
L 235.49121 327.379782 
L 235.602995 327.172416 
L 235.640257 327.208202 
L 235.752043 326.981154 
L 235.789304 327.01919 
L 235.90109 326.770496 
L 235.936861 326.768507 
L 235.938352 326.811011 
L 236.050137 326.538519 
L 236.234955 326.523884 
L 236.236446 326.570367 
L 236.348231 326.270326 
L 236.384003 326.266554 
L 236.385493 326.317206 
L 236.497279 325.988367 
L 236.53305 325.98335 
L 236.53454 326.038589 
L 236.646326 325.678141 
L 236.682097 325.671759 
L 236.683587 325.732045 
L 236.795373 325.336924 
L 236.831144 325.329048 
L 236.832635 325.394886 
L 236.94442 324.961755 
L 237.129239 324.915184 
L 237.130729 324.987773 
L 237.242514 324.509916 
L 237.278286 324.499641 
L 237.279776 324.578965 
L 237.391562 324.05545 
L 237.427333 324.043273 
L 237.428823 324.129993 
L 237.540609 323.55657 
L 237.57638 323.542328 
L 237.57787 323.637168 
L 237.689656 323.009247 
L 237.725427 322.992773 
L 237.726918 323.096523 
L 237.838703 322.409164 
L 238.023522 322.316681 
L 238.025012 322.431485 
L 238.136797 321.674181 
L 238.172569 321.654738 
L 238.174059 321.780281 
L 238.285845 320.952522 
L 238.321616 320.930395 
L 238.323106 321.067692 
L 238.424458 320.170869 
L 238.470663 320.13848 
L 238.472154 320.28863 
L 238.573506 319.309838 
L 238.61971 319.27355 
L 238.621201 319.437744 
L 238.722553 318.370283 
L 239.399227 317.916953 
L 240.098258 317.713591 
L 240.897151 317.7192 
L 241.891296 317.960299 
L 243.186516 318.516279 
L 244.873729 319.495791 
L 247.674326 321.42704 
L 250.31097 323.135164 
L 252.273921 324.139088 
L 254.241344 324.894234 
L 256.404019 325.481723 
L 258.943782 325.934009 
L 262.12743 326.264807 
L 266.485569 326.478826 
L 273.607043 326.57815 
L 294.430423 326.557231 
L 332.422547 326.340681 
L 356.753007 325.986999 
L 376.908655 325.474711 
L 395.907698 324.769221 
L 415.392635 323.820577 
L 436.530504 322.564756 
L 460.155971 320.93381 
L 476.522841 319.689734 
L 476.522841 319.689734 
" clip-path="url(#pc975f0ded7)" style="fill: none; stroke-dasharray: 5.55,2.4; stroke-dashoffset: 0; stroke: #1f77b4; stroke-opacity: 0.5; stroke-width: 1.5"/>
   </g>
   <g id="line2d_46">
    <g clip-path="url(#pc975f0ded7)">
     <use xlink:href="#mb1aedf16e9" x="229.079201" y="325.939247" style="fill: #ff0000; stroke: #ff0000; stroke-linejoin: bevel"/>
    </g>
   </g>
   <g id="line2d_47">
    <g clip-path="url(#pc975f0ded7)">
     <use xlink:href="#m3ba85ecbd2" x="233.550616" y="328.44499" style="fill: #0000ff; stroke: #0000ff"/>
    </g>
   </g>
   <g id="line2d_48">
    <path d="M 70.704659 326.889508 
L 73.597665 325.745398 
L 76.247723 324.907607 
L 77.872337 324.616876 
L 79.2704 324.591715 
L 80.760872 324.795333 
L 82.996579 325.358762 
L 86.576692 326.230926 
L 89.360893 326.657615 
L 92.744264 326.939525 
L 97.592769 327.100844 
L 107.304682 327.154327 
L 155.892569 327.063324 
L 183.946227 326.821662 
L 193.404761 326.666207 
L 193.406251 329.144478 
L 193.515056 326.678183 
L 195.862549 326.816129 
L 197.879157 326.917931 
L 197.990942 326.602368 
L 198.028204 326.656169 
L 198.139989 326.305831 
L 198.175761 326.303951 
L 198.177251 326.364006 
L 198.289037 325.974934 
L 198.324808 325.971456 
L 198.326298 326.03797 
L 198.438084 325.605777 
L 198.473855 325.600499 
L 198.475345 325.674219 
L 198.587131 325.194054 
L 198.771949 325.158552 
L 198.77344 325.240895 
L 198.885225 324.705008 
L 198.920997 324.696315 
L 198.922487 324.787636 
L 199.034272 324.192469 
L 199.070044 324.181269 
L 199.071534 324.282594 
L 199.18332 323.621683 
L 199.219091 323.607693 
L 199.220581 323.720159 
L 199.332367 322.986427 
L 199.368138 322.969346 
L 199.369628 323.094211 
L 199.470981 322.286024 
L 199.666232 322.179934 
L 199.667723 322.320241 
L 199.769075 321.416942 
L 199.81528 321.38857 
L 199.81677 321.544257 
L 199.918122 320.544053 
L 199.964327 320.510552 
L 199.965817 320.683306 
L 200.067169 319.576582 
L 200.113374 319.537545 
L 200.114864 319.729217 
L 200.216216 318.50569 
L 200.262421 318.460737 
L 200.263912 318.673352 
L 200.365264 317.322099 
L 200.560515 317.119149 
L 200.562006 317.358092 
L 200.663358 315.855226 
L 200.709563 315.804192 
L 200.711053 316.068744 
L 200.812405 314.414859 
L 200.85861 314.357531 
L 200.8601 314.650273 
L 200.961452 312.83309 
L 201.007657 312.76948 
L 201.009147 313.093186 
L 201.110499 311.100199 
L 201.156704 311.030504 
L 201.158195 311.388143 
L 201.259547 309.206808 
L 201.454798 308.915996 
L 201.456289 309.315361 
L 201.557641 306.920911 
L 201.603846 306.854417 
L 201.605336 307.294107 
L 201.706688 304.688781 
L 201.752893 304.61924 
L 201.754383 305.102697 
L 201.855735 302.275675 
L 201.90194 302.204612 
L 201.90343 302.735407 
L 202.004782 299.677001 
L 202.050987 299.606416 
L 202.052478 300.188215 
L 202.15383 296.890241 
L 202.349081 296.657098 
L 202.350572 297.297647 
L 202.453414 293.756209 
L 202.498129 293.72179 
L 202.499619 294.420171 
L 202.602462 290.633275 
L 202.647176 290.60935 
L 202.648666 291.369154 
L 202.751509 287.335562 
L 202.796223 287.326248 
L 202.797713 288.150958 
L 202.88118 283.871295 
L 202.900556 283.872238 
L 202.94527 283.882229 
L 202.946761 284.775156 
L 202.948251 280.222266 
L 203.049603 280.255882 
L 203.262741 280.523521 
L 203.566797 281.319446 
L 204.009467 283.184018 
L 204.690612 287.1472 
L 208.261783 309.479317 
L 209.276794 313.769019 
L 210.24411 316.934169 
L 211.196521 319.319235 
L 212.154895 321.139977 
L 213.143077 322.552418 
L 214.187898 323.664131 
L 215.325128 324.551194 
L 216.606934 325.267032 
L 218.109329 325.845975 
L 219.942609 326.306242 
L 222.291593 326.656096 
L 225.496107 326.894374 
L 230.387835 327.013737 
L 240.455971 326.990467 
L 263.699877 326.702879 
L 282.427654 326.255952 
L 299.927283 325.615335 
L 318.078247 324.725 
L 338.150429 323.512902 
L 352.418715 322.533325 
L 352.418715 322.533325 
" clip-path="url(#pc975f0ded7)" style="fill: none; stroke: #ff7f0e; stroke-opacity: 0.5; stroke-width: 1.5; stroke-linecap: square"/>
   </g>
   <g id="line2d_49">
    <path d="M 70.704659 326.889508 
L 73.597665 325.745398 
L 76.247723 324.907607 
L 77.872337 324.616876 
L 79.2704 324.591715 
L 80.760872 324.795333 
L 82.996579 325.358762 
L 86.576692 326.230926 
L 89.360893 326.657615 
L 92.744264 326.939525 
L 97.592769 327.100844 
L 107.304682 327.154327 
L 155.892569 327.063324 
L 183.946227 326.821662 
L 193.404761 326.666207 
L 193.406251 329.144478 
L 193.515056 326.733017 
L 195.254436 328.085302 
L 196.311181 328.498407 
L 197.657077 328.774667 
L 198.028204 328.772313 
L 198.029694 328.696154 
L 198.139989 328.708581 
L 198.326298 328.673239 
L 198.327789 328.585842 
L 198.438084 328.596362 
L 198.77344 328.561362 
L 198.77493 328.460969 
L 198.885225 328.468541 
L 199.071534 328.407346 
L 199.073025 328.28937 
L 199.18332 328.293865 
L 199.369628 328.214726 
L 199.481414 328.07534 
L 199.667723 328.101996 
L 199.779508 327.946758 
L 199.81677 327.97419 
L 199.928555 327.801711 
L 199.965817 327.83113 
L 200.077603 327.639348 
L 200.113374 327.637094 
L 200.114864 327.670978 
L 200.22665 327.457587 
L 200.262421 327.454249 
L 200.263912 327.491677 
L 200.375697 327.2541 
L 200.560515 327.231609 
L 200.562006 327.273373 
L 200.673791 327.006295 
L 200.709563 327.000776 
L 200.711053 327.047012 
L 200.822838 326.749463 
L 200.85861 326.742388 
L 200.8601 326.793631 
L 200.971886 326.462023 
L 201.007657 326.453192 
L 201.009147 326.510037 
L 201.120933 326.140376 
L 201.156704 326.129567 
L 201.158195 326.192682 
L 201.26998 325.780534 
L 201.454798 325.715866 
L 201.456289 325.787049 
L 201.568074 325.321732 
L 201.603846 325.307279 
L 201.605336 325.386379 
L 201.717121 324.867839 
L 201.752893 324.850646 
L 201.754383 324.938594 
L 201.866169 324.36081 
L 201.90194 324.340561 
L 201.90343 324.438393 
L 202.015216 323.794739 
L 202.050987 323.771093 
L 202.052478 323.879961 
L 202.164263 323.16317 
L 202.349081 323.027224 
L 202.350572 323.150622 
L 202.462357 322.341819 
L 202.498129 322.312575 
L 202.499619 322.449832 
L 202.611404 321.550773 
L 202.647176 321.517126 
L 202.648666 321.669811 
L 202.750018 320.682504 
L 202.796223 320.632702 
L 202.797713 320.802546 
L 202.899065 319.707087 
L 202.94527 319.650579 
L 202.946761 319.839483 
L 203.048113 318.625208 
L 203.723296 317.872671 
L 204.346314 317.495601 
L 204.972312 317.372979 
L 205.657929 317.470494 
L 206.464274 317.820407 
L 207.459909 318.509473 
L 208.801333 319.731992 
L 212.80325 323.54401 
L 214.296703 324.556802 
L 215.830398 325.327675 
L 217.532517 325.930412 
L 219.544653 326.399855 
L 222.072493 326.75107 
L 225.50654 326.989319 
L 230.890124 327.115868 
L 244.05397 327.135412 
L 284.712548 326.967636 
L 307.640474 326.66051 
L 326.092513 326.193873 
L 343.589161 325.528033 
L 361.902586 324.604961 
L 382.253487 323.351569 
L 394.078889 322.533374 
L 394.078889 322.533374 
" clip-path="url(#pc975f0ded7)" style="fill: none; stroke-dasharray: 5.55,2.4; stroke-dashoffset: 0; stroke: #ff7f0e; stroke-opacity: 0.5; stroke-width: 1.5"/>
   </g>
   <g id="line2d_50">
    <g clip-path="url(#pc975f0ded7)">
     <use xlink:href="#mb1aedf16e9" x="193.404761" y="326.666207" style="fill: #ff0000; stroke: #ff0000; stroke-linejoin: bevel"/>
    </g>
   </g>
   <g id="line2d_51">
    <g clip-path="url(#pc975f0ded7)">
     <use xlink:href="#m3ba85ecbd2" x="197.876176" y="328.802807" style="fill: #0000ff; stroke: #0000ff"/>
    </g>
   </g>
   <g id="line2d_52">
    <path d="M 70.704659 326.889508 
L 75.41604 325.457037 
L 76.811122 325.284473 
L 78.057156 325.356198 
L 79.52378 325.678714 
L 84.777693 327.023754 
L 87.415828 327.34572 
L 90.995941 327.542032 
L 97.205246 327.626225 
L 122.358446 327.604945 
L 152.696998 327.421247 
L 161.42371 327.295092 
L 161.4252 329.196675 
L 161.534004 327.305501 
L 164.029054 327.423902 
L 165.898106 327.506958 
L 166.009891 327.21144 
L 166.047153 327.263289 
L 166.158938 326.928161 
L 166.194709 326.925485 
L 166.1962 326.985151 
L 166.307985 326.604872 
L 166.343757 326.600131 
L 166.345247 326.667673 
L 166.457032 326.235956 
L 166.492804 326.2288 
L 166.494294 326.30533 
L 166.60608 325.815053 
L 166.790898 325.766218 
L 166.792389 325.853992 
L 166.904174 325.292268 
L 166.939945 325.28011 
L 166.941436 325.379647 
L 167.053221 324.74191 
L 167.088992 324.726039 
L 167.090483 324.838981 
L 167.202268 324.115028 
L 167.23804 324.094893 
L 167.23953 324.223105 
L 167.340882 323.408922 
L 167.387087 323.376522 
L 167.388577 323.522112 
L 167.489929 322.599221 
L 167.685181 322.440159 
L 167.686672 322.608554 
L 167.788024 321.547784 
L 167.834228 321.504272 
L 167.835719 321.695322 
L 167.937071 320.495848 
L 167.983275 320.443694 
L 167.984766 320.660422 
L 168.086118 319.305568 
L 168.132323 319.243908 
L 168.133813 319.489694 
L 168.235165 317.961406 
L 168.28137 317.889434 
L 168.28286 318.168038 
L 168.384212 316.446972 
L 168.579464 316.116595 
L 168.580955 316.438534 
L 168.682307 314.476054 
L 168.728511 314.392067 
L 168.730002 314.75587 
L 168.831354 312.558471 
L 168.877558 312.463788 
L 168.879049 312.874439 
L 168.980401 310.420609 
L 169.026606 310.315577 
L 169.028096 310.77847 
L 169.129448 308.046749 
L 169.175653 307.932288 
L 169.177143 308.453205 
L 169.278495 305.422797 
L 169.473747 304.956548 
L 169.475238 305.550787 
L 169.57659 302.174865 
L 169.622794 302.073408 
L 169.624285 302.738107 
L 169.725637 299.030527 
L 169.771842 298.929779 
L 169.773332 299.671429 
L 169.876175 295.615701 
L 169.920889 295.523877 
L 169.922379 296.349055 
L 170.025222 291.939635 
L 170.069936 291.859415 
L 170.071426 292.774647 
L 170.174269 288.007577 
L 170.36803 287.849121 
L 170.369521 288.864696 
L 170.445535 283.758788 
L 170.472363 283.761754 
L 170.517077 283.779753 
L 170.518568 284.895891 
L 170.520058 279.390258 
L 170.62141 279.453344 
L 170.666125 279.511105 
L 170.667615 280.732993 
L 170.669105 274.794355 
L 170.770458 274.964849 
L 170.815172 275.072926 
L 170.816662 276.405053 
L 170.818153 270.027328 
L 170.919505 270.331365 
L 170.964219 270.501005 
L 170.965709 271.947005 
L 170.9672 265.128531 
L 171.070042 265.601145 
L 171.405398 267.929997 
L 171.931535 273.374607 
L 174.803674 305.881295 
L 175.6443 311.755594 
L 176.455117 315.932843 
L 177.25699 318.951894 
L 178.063336 321.159378 
L 178.890547 322.799761 
L 179.756511 324.037175 
L 180.689547 324.988834 
L 181.731386 325.733859 
L 182.94314 326.322862 
L 184.421688 326.786836 
L 186.32502 327.140361 
L 188.942288 327.385831 
L 192.953148 327.51729 
L 201.088142 327.516673 
L 221.343653 327.270024 
L 237.98775 326.85375 
L 253.941759 326.230116 
L 271.16416 325.329296 
L 280.966992 324.729555 
L 280.966992 324.729555 
" clip-path="url(#pc975f0ded7)" style="fill: none; stroke: #2ca02c; stroke-opacity: 0.5; stroke-width: 1.5; stroke-linecap: square"/>
   </g>
   <g id="line2d_53">
    <path d="M 70.704659 326.889508 
L 75.41604 325.457037 
L 76.811122 325.284473 
L 78.057156 325.356198 
L 79.52378 325.678714 
L 84.777693 327.023754 
L 87.415828 327.34572 
L 90.995941 327.542032 
L 97.205246 327.626225 
L 122.358446 327.604945 
L 152.696998 327.421247 
L 161.42371 327.295092 
L 161.4252 329.196675 
L 161.534004 327.357928 
L 163.055776 328.450866 
L 164.082711 328.803819 
L 165.477793 329.03301 
L 166.1962 329.021559 
L 166.19769 328.968103 
L 166.307985 328.975483 
L 166.792389 328.9116 
L 166.793879 328.843033 
L 166.904174 328.847325 
L 167.090483 328.804288 
L 167.202268 328.722728 
L 167.388577 328.664531 
L 167.500363 328.560309 
L 167.835719 328.478576 
L 167.947504 328.343451 
L 167.983275 328.34116 
L 167.984766 328.366207 
L 168.096551 328.21267 
L 168.132323 328.209308 
L 168.133813 328.237538 
L 168.245598 328.062883 
L 168.28137 328.058261 
L 168.28286 328.090135 
L 168.394646 327.891257 
L 168.579464 327.860649 
L 168.580955 327.897312 
L 168.69274 327.666563 
L 168.728511 327.659086 
L 168.730002 327.70061 
L 168.841787 327.437495 
L 168.877558 327.427989 
L 168.879049 327.475085 
L 168.990834 327.174867 
L 169.026606 327.16299 
L 169.028096 327.216473 
L 169.139882 326.873736 
L 169.175653 326.859095 
L 169.177143 326.9199 
L 169.288929 326.528463 
L 169.473747 326.438385 
L 169.475238 326.509388 
L 169.587023 326.051407 
L 169.622794 326.030704 
L 169.624285 326.11153 
L 169.73607 325.588622 
L 169.771842 325.563644 
L 169.773332 325.655724 
L 169.885117 325.058692 
L 169.920889 325.028792 
L 169.922379 325.133756 
L 170.034165 324.45222 
L 170.069936 324.416677 
L 170.071426 324.536388 
L 170.183212 323.758672 
L 170.36803 323.546905 
L 170.369521 323.687716 
L 170.481306 322.777082 
L 170.517077 322.729962 
L 170.518568 322.89047 
L 170.630353 321.853865 
L 170.666125 321.798709 
L 170.667615 321.981675 
L 170.7794 320.802891 
L 170.815172 320.738774 
L 170.816662 320.947308 
L 170.928448 319.608592 
L 170.964219 319.534583 
L 170.965709 319.772179 
L 171.077495 318.254262 
L 171.803354 316.808169 
L 172.366753 316.135501 
L 172.842213 315.886279 
L 173.283393 315.900136 
L 173.755872 316.148144 
L 174.331194 316.722102 
L 175.110711 317.846248 
L 176.853073 320.887767 
L 178.175121 322.923344 
L 179.27956 324.226232 
L 180.379529 325.185591 
L 181.561473 325.921227 
L 182.91035 326.494513 
L 184.543907 326.939373 
L 186.651433 327.271559 
L 189.599587 327.495318 
L 194.41232 327.61103 
L 207.832527 327.627308 
L 246.514739 327.474514 
L 266.159156 327.181114 
L 282.372507 326.717687 
L 298.49792 326.031271 
L 316.267324 325.046773 
L 321.337909 324.729548 
L 321.337909 324.729548 
" clip-path="url(#pc975f0ded7)" style="fill: none; stroke-dasharray: 5.55,2.4; stroke-dashoffset: 0; stroke: #2ca02c; stroke-opacity: 0.5; stroke-width: 1.5"/>
   </g>
   <g id="line2d_54">
    <g clip-path="url(#pc975f0ded7)">
     <use xlink:href="#mb1aedf16e9" x="161.42371" y="327.295092" style="fill: #ff0000; stroke: #ff0000; stroke-linejoin: bevel"/>
    </g>
   </g>
   <g id="line2d_55">
    <g clip-path="url(#pc975f0ded7)">
     <use xlink:href="#m3ba85ecbd2" x="165.895125" y="329.07053" style="fill: #0000ff; stroke: #0000ff"/>
    </g>
   </g>
   <g id="line2d_56">
    <path d="M 70.704659 326.889508 
L 72.457454 326.517812 
L 74.906299 326.018076 
L 76.021172 326.039481 
L 77.203116 326.296628 
L 82.161915 327.640781 
L 84.591384 327.893428 
L 88.265397 328.028687 
L 96.881814 328.05961 
L 127.087713 327.920767 
L 132.969114 327.841842 
L 132.970605 329.242056 
L 133.079409 327.850634 
L 135.781634 327.949016 
L 137.44351 328.016841 
L 137.555296 327.735654 
L 137.591067 327.734166 
L 137.592558 327.787207 
L 137.704343 327.457752 
L 137.740114 327.453909 
L 137.741605 327.515961 
L 137.85339 327.129566 
L 137.889161 327.122812 
L 137.890652 327.195503 
L 138.002437 326.741974 
L 138.038209 326.731644 
L 138.039699 326.8169 
L 138.151484 326.284285 
L 138.336303 326.211692 
L 138.337793 326.313715 
L 138.449579 325.67753 
L 138.48535 325.658908 
L 138.486841 325.77868 
L 138.598626 325.031889 
L 138.634397 325.006999 
L 138.635888 325.147697 
L 138.73724 324.280854 
L 138.783444 324.238934 
L 138.784935 324.404284 
L 138.886287 323.388547 
L 138.932492 323.335203 
L 138.933982 323.529558 
L 139.035334 322.340341 
L 139.230586 322.069754 
L 139.232076 322.304974 
L 139.333428 320.87789 
L 139.379633 320.801769 
L 139.381124 321.077725 
L 139.482476 319.414342 
L 139.52868 319.321526 
L 139.530171 319.645055 
L 139.631523 317.71056 
L 139.677727 317.599284 
L 139.679218 317.978195 
L 139.78057 315.734719 
L 139.826775 315.603582 
L 139.828265 316.046717 
L 139.929617 313.453896 
L 140.124869 312.851542 
L 140.126359 313.384042 
L 140.227711 310.330522 
L 140.273916 310.17999 
L 140.275407 310.798758 
L 140.376759 307.310024 
L 140.422963 307.144428 
L 140.424454 307.861367 
L 140.527296 303.892335 
L 140.57201 303.721979 
L 140.573501 304.549805 
L 140.676343 300.071189 
L 140.721058 299.897466 
L 140.722548 300.84947 
L 140.825391 295.833428 
L 141.019152 295.239824 
L 141.020642 296.345359 
L 141.123485 290.738691 
L 141.168199 290.658932 
L 141.16969 291.914204 
L 141.272532 285.75784 
L 141.317246 285.721898 
L 141.318737 287.139027 
L 141.402203 280.439725 
L 141.421579 280.442488 
L 141.466293 280.470467 
L 141.467784 282.060315 
L 141.469274 274.71523 
L 141.572117 274.851146 
L 141.615341 274.962507 
L 141.616831 276.734136 
L 141.618322 268.673373 
L 141.721164 269.051516 
L 141.913435 270.280739 
L 141.914925 272.211819 
L 141.916416 263.264029 
L 142.019258 264.226232 
L 142.062482 264.687741 
L 142.063973 266.804835 
L 142.065463 257.147163 
L 142.168306 258.462171 
L 142.211529 259.072838 
L 142.21302 261.377309 
L 142.21451 251.025468 
L 142.317353 252.741094 
L 142.360576 253.518764 
L 142.362067 256.009207 
L 142.363557 244.98874 
L 142.46789 247.178113 
L 142.509624 248.104735 
L 142.511114 250.777061 
L 142.512605 239.121953 
L 142.616938 241.790108 
L 144.833269 297.31907 
L 145.524848 306.95263 
L 146.197051 313.396515 
L 146.863291 317.763596 
L 147.532513 320.758189 
L 148.215149 322.84477 
L 148.921633 324.321156 
L 149.67134 325.390245 
L 150.495571 326.184424 
L 151.443511 326.787279 
L 152.595646 327.249505 
L 154.087608 327.597445 
L 156.169797 327.839509 
L 159.427968 327.972061 
L 166.234952 327.979441 
L 183.324701 327.755849 
L 197.549763 327.353097 
L 212.147442 326.711841 
L 218.601185 326.36563 
L 218.601185 326.36563 
" clip-path="url(#pc975f0ded7)" style="fill: none; stroke: #d62728; stroke-opacity: 0.5; stroke-width: 1.5; stroke-linecap: square"/>
   </g>
   <g id="line2d_57">
    <path d="M 70.704659 326.889508 
L 72.457454 326.517812 
L 74.906299 326.018076 
L 76.021172 326.039481 
L 77.203116 326.296628 
L 82.161915 327.640781 
L 84.591384 327.893428 
L 88.265397 328.028687 
L 96.881814 328.05961 
L 127.087713 327.920767 
L 132.969114 327.841842 
L 132.970605 329.242056 
L 133.079409 327.90185 
L 134.356743 328.75453 
L 135.330021 329.041778 
L 136.77876 329.216083 
L 137.890652 329.208565 
L 138.002437 329.180689 
L 138.635888 329.104865 
L 138.747673 329.055628 
L 139.232076 328.959628 
L 139.343862 328.880031 
L 139.530171 328.816045 
L 139.641956 328.706485 
L 139.826775 328.589364 
L 139.828265 328.614459 
L 139.94005 328.462573 
L 140.124869 328.424812 
L 140.126359 328.455184 
L 140.238145 328.26937 
L 140.273916 328.259887 
L 140.275407 328.295527 
L 140.387192 328.075984 
L 140.422963 328.063794 
L 140.424454 328.105695 
L 140.536239 327.846015 
L 140.57201 327.830522 
L 140.573501 327.879867 
L 140.685286 327.572432 
L 140.721058 327.552921 
L 140.722548 327.611122 
L 140.834333 327.246887 
L 141.019152 327.12069 
L 141.020642 327.192734 
L 141.132428 326.740242 
L 141.168199 326.709784 
L 141.16969 326.794933 
L 141.281475 326.258769 
L 141.317246 326.221093 
L 141.318737 326.321826 
L 141.430522 325.686523 
L 141.466293 325.640216 
L 141.467784 325.759469 
L 141.579569 325.00692 
L 141.615341 324.950357 
L 141.616831 325.091606 
L 141.728616 324.200729 
L 141.913435 323.845529 
L 141.914925 324.022179 
L 142.026711 322.913446 
L 142.062482 322.830473 
L 142.063973 323.039525 
L 142.175758 321.732069 
L 142.211529 321.632726 
L 142.21302 321.880028 
L 142.324805 320.341302 
L 142.360576 320.223354 
L 142.362067 320.515692 
L 142.473852 318.709393 
L 142.509624 318.570666 
L 142.511114 318.915859 
L 142.6229 316.802169 
L 143.450111 313.571987 
L 143.897253 312.600344 
L 144.2028 312.375177 
L 144.441275 312.45754 
L 144.721484 312.826443 
L 145.116459 313.767523 
L 145.764814 315.986267 
L 147.343223 321.488565 
L 148.15553 323.451209 
L 148.94399 324.798469 
L 149.760768 325.766335 
L 150.656542 326.486079 
L 151.696891 327.032918 
L 152.983168 327.449366 
L 154.691249 327.756029 
L 157.174375 327.958111 
L 161.498233 328.055806 
L 177.228671 328.064414 
L 211.464806 327.924744 
L 227.46353 327.639603 
L 241.517187 327.164296 
L 256.742356 326.420372 
L 257.723086 326.365607 
L 257.723086 326.365607 
" clip-path="url(#pc975f0ded7)" style="fill: none; stroke-dasharray: 5.55,2.4; stroke-dashoffset: 0; stroke: #d62728; stroke-opacity: 0.5; stroke-width: 1.5"/>
   </g>
   <g id="line2d_58">
    <g clip-path="url(#pc975f0ded7)">
     <use xlink:href="#mb1aedf16e9" x="132.969114" y="327.841842" style="fill: #ff0000; stroke: #ff0000; stroke-linejoin: bevel"/>
    </g>
   </g>
   <g id="line2d_59">
    <g clip-path="url(#pc975f0ded7)">
     <use xlink:href="#m3ba85ecbd2" x="137.440529" y="329.250789" style="fill: #0000ff; stroke: #0000ff"/>
    </g>
   </g>
   <g id="line2d_60">
    <path d="M 70.704659 326.889508 
L 71.473742 326.940377 
L 73.062585 326.763806 
L 74.162553 326.766206 
L 75.126889 327.004488 
L 78.70253 328.116468 
L 80.666972 328.333651 
L 83.896824 328.43765 
L 93.823366 328.438163 
L 107.972413 328.325211 
L 107.973904 329.282175 
L 108.082708 328.332156 
L 111.142647 328.407803 
L 112.446809 328.463803 
L 112.558595 328.186176 
L 112.594366 328.183732 
L 112.595857 328.24091 
L 112.707642 327.895741 
L 112.743413 327.889662 
L 112.744904 327.960909 
L 112.856689 327.531127 
L 112.892461 327.520175 
L 112.893951 327.609087 
L 113.005736 327.073403 
L 113.041508 327.056011 
L 113.042998 327.167102 
L 113.154784 326.499075 
L 113.339602 326.3699 
L 113.341093 326.513883 
L 113.442445 325.662149 
L 113.488649 325.61694 
L 113.49014 325.79689 
L 113.591492 324.738179 
L 113.637696 324.67539 
L 113.639187 324.900308 
L 113.740539 323.585809 
L 113.786744 323.50117 
L 113.788234 323.782172 
L 113.889586 322.153305 
L 113.935791 322.042105 
L 113.937281 322.392814 
L 114.038633 320.380358 
L 114.233885 319.798273 
L 114.235376 320.256796 
L 114.336728 317.66638 
L 114.382932 317.500515 
L 114.384423 318.069088 
L 114.485775 314.907984 
L 114.531979 314.706926 
L 114.53347 315.409468 
L 114.636312 311.571573 
L 114.681027 311.344479 
L 114.682517 312.208544 
L 114.78536 307.599876 
L 114.830074 307.346745 
L 114.831564 308.403268 
L 114.934407 302.928301 
L 115.128168 301.945553 
L 115.129659 303.265365 
L 115.232501 296.698103 
L 115.277215 296.540041 
L 115.278706 298.122161 
L 115.381548 290.562562 
L 115.426262 290.471195 
L 115.427753 292.348894 
L 115.530595 283.785717 
L 115.57531 283.810018 
L 115.5768 286.013488 
L 115.578291 276.268511 
L 115.681133 276.485347 
L 115.724357 276.6784 
L 115.725847 279.232226 
L 115.727338 268.088294 
L 115.83018 268.82037 
L 116.022451 271.193852 
L 116.023942 274.027347 
L 116.025432 261.090366 
L 116.128275 263.031654 
L 116.171498 263.952082 
L 116.172989 267.144784 
L 116.174479 252.788213 
L 116.277322 255.518147 
L 116.320545 256.764548 
L 116.322036 260.315234 
L 116.323526 244.586362 
L 116.427859 248.26173 
L 116.471083 253.711688 
L 116.472574 236.691198 
L 116.582868 241.611243 
L 116.62013 247.48431 
L 116.621621 229.278499 
L 116.731916 235.254301 
L 116.918225 249.535523 
L 116.919715 230.430873 
L 117.03001 237.40631 
L 117.067272 244.058553 
L 117.068762 224.008089 
L 117.179057 231.871336 
L 117.216319 239.048832 
L 117.217809 218.180715 
L 117.328104 226.883762 
L 117.365366 234.543876 
L 117.366857 212.980644 
L 117.477151 222.458722 
L 117.514413 230.553906 
L 117.515904 208.407962 
L 117.626199 218.586041 
L 118.226859 262.288737 
L 118.781314 287.683302 
L 119.322355 303.035099 
L 119.857435 312.386965 
L 120.392514 318.141662 
L 120.933555 321.729291 
L 121.48652 324.001999 
L 122.060352 325.474513 
L 122.671445 326.457993 
L 123.3511 327.139735 
L 124.154465 327.628334 
L 125.18289 327.983782 
L 126.627157 328.231859 
L 128.913541 328.375951 
L 133.630884 328.405762 
L 146.617364 328.229356 
L 158.216214 327.855426 
L 164.850304 327.551694 
L 164.850304 327.551694 
" clip-path="url(#pc975f0ded7)" style="fill: none; stroke: #9467bd; stroke-opacity: 0.5; stroke-width: 1.5; stroke-linecap: square"/>
   </g>
   <g id="line2d_61">
    <path d="M 70.704659 326.889508 
L 71.473742 326.940377 
L 73.062585 326.763806 
L 74.162553 326.766206 
L 75.126889 327.004488 
L 78.70253 328.116468 
L 80.666972 328.333651 
L 83.896824 328.43765 
L 93.823366 328.438163 
L 107.972413 328.325211 
L 107.973904 329.282175 
L 108.082708 328.38417 
L 109.078343 329.006629 
L 109.965174 329.218975 
L 111.516755 329.32754 
L 113.677939 329.277898 
L 114.484284 329.157169 
L 114.831564 329.05449 
L 114.94335 328.964763 
L 115.277215 328.820296 
L 115.278706 328.846429 
L 115.390491 328.694785 
L 115.524634 328.531175 
L 115.57531 328.508183 
L 115.5768 328.549123 
L 115.688585 328.309343 
L 115.724357 328.288081 
L 115.725847 328.33946 
L 115.837633 328.037512 
L 116.022451 327.889119 
L 116.023942 327.959436 
L 116.135727 327.544057 
L 116.171498 327.505508 
L 116.172989 327.594016 
L 116.284774 327.070623 
L 116.320545 327.02112 
L 116.322036 327.132599 
L 116.433821 326.473387 
L 116.469593 326.410187 
L 116.471083 326.550645 
L 116.582868 325.721157 
L 116.61864 325.640989 
L 116.62013 325.817943 
L 116.731916 324.775815 
L 116.916734 324.237798 
L 116.918225 324.481494 
L 117.03001 323.055412 
L 117.065781 322.922171 
L 117.067272 323.228416 
L 117.179057 321.449898 
L 117.214828 321.28626 
L 117.216319 321.670365 
L 117.328104 319.462463 
L 117.363876 319.264374 
L 117.365366 319.744837 
L 117.477151 317.019891 
L 117.512923 316.784384 
L 117.514413 317.383238 
L 117.626199 314.044709 
L 118.283497 309.861604 
L 118.569667 309.173056 
L 118.715733 309.20735 
L 118.882666 309.570724 
L 119.149461 310.785802 
L 119.645788 314.310536 
L 120.604161 320.912181 
L 121.212274 323.573228 
L 121.803991 325.227197 
L 122.416575 326.311464 
L 123.082816 327.051005 
L 123.85488 327.57537 
L 124.823686 327.955761 
L 126.156168 328.225153 
L 128.21451 328.392724 
L 132.305854 328.46036 
L 161.250815 328.448681 
L 181.153083 328.296391 
L 192.902472 327.980333 
L 202.738095 327.551675 
L 202.738095 327.551675 
" clip-path="url(#pc975f0ded7)" style="fill: none; stroke-dasharray: 5.55,2.4; stroke-dashoffset: 0; stroke: #9467bd; stroke-opacity: 0.5; stroke-width: 1.5"/>
   </g>
   <g id="line2d_62">
    <g clip-path="url(#pc975f0ded7)">
     <use xlink:href="#mb1aedf16e9" x="107.972413" y="328.325211" style="fill: #ff0000; stroke: #ff0000; stroke-linejoin: bevel"/>
    </g>
   </g>
   <g id="line2d_63">
    <g clip-path="url(#pc975f0ded7)">
     <use xlink:href="#m3ba85ecbd2" x="112.443829" y="329.344916" style="fill: #0000ff; stroke: #0000ff"/>
    </g>
   </g>
   <g id="line2d_64">
    <path d="M 70.704659 326.889508 
L 71.145839 327.150933 
L 71.818041 327.265447 
L 73.11028 327.464523 
L 74.238567 327.978402 
L 75.419021 328.402024 
L 76.748522 328.622218 
L 78.942496 328.729608 
L 85.279982 328.733124 
L 90.577118 328.682524 
L 90.578609 329.311832 
L 90.687413 328.687571 
L 94.353974 328.738232 
L 95.051514 328.789219 
L 95.1633 328.490417 
L 95.199071 328.486169 
L 95.200561 328.555951 
L 95.312347 328.141903 
L 95.348118 328.130956 
L 95.349609 328.228631 
L 95.461394 327.654004 
L 95.497165 327.632977 
L 95.498656 327.769728 
L 95.600008 326.982425 
L 95.646213 326.936256 
L 95.647703 327.127654 
L 95.749055 326.037746 
L 95.944307 325.73351 
L 95.945797 326.019494 
L 96.047149 324.409218 
L 96.093354 324.301771 
L 96.094844 324.700132 
L 96.196197 322.490074 
L 96.242401 322.335418 
L 96.243892 322.888218 
L 96.346734 319.869362 
L 96.391448 319.665059 
L 96.392939 320.427832 
L 96.495781 316.356388 
L 96.540496 316.094287 
L 96.541986 317.138336 
L 96.644829 311.726603 
L 96.83859 310.564936 
L 96.84008 312.048649 
L 96.942923 304.653068 
L 96.987637 304.454657 
L 96.989128 306.42365 
L 97.09197 297.079268 
L 97.136684 296.993035 
L 97.138175 299.557172 
L 97.194813 288.045739 
L 97.242508 288.106156 
L 97.285731 288.264534 
L 97.287222 291.52845 
L 97.288712 277.127151 
L 97.391555 277.979575 
L 97.434779 278.553101 
L 97.436269 282.600177 
L 97.437759 264.921876 
L 97.540602 267.149488 
L 97.732873 273.339148 
L 97.734363 277.830838 
L 97.735854 256.147362 
L 97.838696 261.21848 
L 97.883411 268.793319 
L 97.884901 243.787798 
L 97.995196 251.443713 
L 98.032458 260.064571 
L 98.033948 231.997152 
L 98.144243 242.036748 
L 98.181505 252.060439 
L 98.182995 221.315682 
L 98.29329 233.743495 
L 98.330552 245.062104 
L 98.332043 212.081202 
L 98.442337 226.739836 
L 98.628646 255.10585 
L 98.630137 221.745811 
L 98.740432 236.591514 
L 98.777694 248.199886 
L 98.779184 213.104167 
L 98.889479 229.620741 
L 98.926741 242.222931 
L 98.928231 205.796715 
L 99.038526 223.770731 
L 99.075788 237.21825 
L 99.077278 199.795712 
L 99.187573 218.997853 
L 99.224835 233.143108 
L 99.226326 194.984551 
L 99.33662 215.193286 
L 99.522929 249.7243 
L 99.52442 213.353273 
L 99.634715 231.023061 
L 99.671977 243.741065 
L 99.673467 206.320987 
L 99.783762 225.146963 
L 99.821024 238.646992 
L 99.822514 200.470035 
L 99.932809 220.275238 
L 99.970071 234.428436 
L 99.971561 195.711416 
L 100.081856 216.328836 
L 100.119118 231.01557 
L 100.120609 191.912727 
L 100.230903 213.192811 
L 100.651216 268.028579 
L 101.070039 296.54677 
L 101.488862 311.407532 
L 101.907684 319.155412 
L 102.332469 323.276432 
L 102.769177 325.528008 
L 103.226752 326.806683 
L 103.723079 327.570533 
L 104.298401 328.055603 
L 105.039165 328.380031 
L 106.124229 328.593457 
L 108.005204 328.707538 
L 112.727018 328.709204 
L 122.127423 328.507647 
L 127.595964 328.278784 
L 127.595964 328.278784 
" clip-path="url(#pc975f0ded7)" style="fill: none; stroke: #e377c2; stroke-opacity: 0.5; stroke-width: 1.5; stroke-linecap: square"/>
   </g>
   <g id="line2d_65">
    <path d="M 70.704659 326.889508 
L 71.145839 327.150933 
L 71.818041 327.265447 
L 73.11028 327.464523 
L 74.238567 327.978402 
L 75.419021 328.402024 
L 76.748522 328.622218 
L 78.942496 328.729608 
L 85.279982 328.733124 
L 90.577118 328.682524 
L 90.578609 329.311832 
L 90.687413 328.743582 
L 91.417744 329.178249 
L 92.206204 329.318077 
L 94.127422 329.365217 
L 97.552526 329.266947 
L 98.032458 329.170086 
L 98.144243 329.078738 
L 98.329062 328.957712 
L 98.330552 328.989885 
L 98.442337 328.814108 
L 98.627156 328.734263 
L 98.628646 328.783908 
L 98.740432 328.510548 
L 98.776203 328.487586 
L 98.777694 328.556522 
L 98.889479 328.17612 
L 98.92525 328.144036 
L 98.926741 328.239843 
L 99.038526 327.71063 
L 99.074297 327.666014 
L 99.075788 327.799215 
L 99.187573 327.063734 
L 99.223345 327.002096 
L 99.224835 327.18725 
L 99.33662 326.167145 
L 99.521439 325.713991 
L 99.522929 326.000097 
L 99.634715 324.430763 
L 99.670486 324.308895 
L 99.671977 324.70516 
L 99.774819 322.590803 
L 99.819533 322.39098 
L 99.821024 322.93778 
L 99.923866 320.055649 
L 99.96858 319.801074 
L 99.970071 320.551473 
L 100.072913 316.664901 
L 100.117628 316.354962 
L 100.119118 317.376842 
L 100.221961 312.211286 
L 100.591598 310.133783 
L 100.707854 310.021464 
L 100.746607 310.05628 
L 100.870316 310.416522 
L 101.083453 311.868091 
L 101.538047 316.934847 
L 102.150631 322.826034 
L 102.62013 325.347579 
L 103.086647 326.732835 
L 103.581484 327.545426 
L 104.144882 328.052728 
L 104.858818 328.388156 
L 105.890224 328.608718 
L 107.657924 328.730588 
L 112.439357 328.761489 
L 153.689652 328.650793 
L 162.465549 328.370434 
L 164.461291 328.278793 
L 164.461291 328.278793 
" clip-path="url(#pc975f0ded7)" style="fill: none; stroke-dasharray: 5.55,2.4; stroke-dashoffset: 0; stroke: #e377c2; stroke-opacity: 0.5; stroke-width: 1.5"/>
   </g>
   <g id="line2d_66">
    <g clip-path="url(#pc975f0ded7)">
     <use xlink:href="#mb1aedf16e9" x="90.577118" y="328.682524" style="fill: #ff0000; stroke: #ff0000; stroke-linejoin: bevel"/>
    </g>
   </g>
   <g id="line2d_67">
    <g clip-path="url(#pc975f0ded7)">
     <use xlink:href="#m3ba85ecbd2" x="95.048533" y="329.367139" style="fill: #0000ff; stroke: #0000ff"/>
    </g>
   </g>
   <g id="patch_8">
    <path d="M 50.41375 336.24 
L 50.41375 185.04 
" style="fill: none; stroke: #000000; stroke-width: 0.8; stroke-linejoin: miter; stroke-linecap: square"/>
   </g>
   <g id="patch_9">
    <path d="M 496.81375 336.24 
L 496.81375 185.04 
" style="fill: none; stroke: #000000; stroke-width: 0.8; stroke-linejoin: miter; stroke-linecap: square"/>
   </g>
   <g id="patch_10">
    <path d="M 50.41375 336.24 
L 496.81375 336.24 
" style="fill: none; stroke: #000000; stroke-width: 0.8; stroke-linejoin: miter; stroke-linecap: square"/>
   </g>
   <g id="patch_11">
    <path d="M 50.41375 185.04 
L 496.81375 185.04 
" style="fill: none; stroke: #000000; stroke-width: 0.8; stroke-linejoin: miter; stroke-linecap: square"/>
   </g>
  </g>
 </g>
 <defs>
  <clipPath id="p57179be8f3">
   <rect x="50.41375" y="3.6" width="446.4" height="151.2"/>
  </clipPath>
  <clipPath id="pc975f0ded7">
   <rect x="50.41375" y="185.04" width="446.4" height="151.2"/>
  </clipPath>
 </defs>
</svg>
