<?xml version="1.0" encoding="utf-8" standalone="no"?>
<!DOCTYPE svg PUBLIC "-//W3C//DTD SVG 1.1//EN"
  "http://www.w3.org/Graphics/SVG/1.1/DTD/svg11.dtd">
<svg xmlns:xlink="http://www.w3.org/1999/xlink" width="460.8pt" height="345.6pt" viewBox="0 0 460.8 345.6" xmlns="http://www.w3.org/2000/svg" version="1.1">
 <metadata>
  <rdf:RDF xmlns:dc="http://purl.org/dc/elements/1.1/" xmlns:cc="http://creativecommons.org/ns#" xmlns:rdf="http://www.w3.org/1999/02/22-rdf-syntax-ns#">
   <cc:Work>
    <dc:type rdf:resource="http://purl.org/dc/dcmitype/StillImage"/>
    <dc:date>2024-08-22T13:17:42.602310</dc:date>
    <dc:format>image/svg+xml</dc:format>
    <dc:creator>
     <cc:Agent>
      <dc:title>Matplotlib v3.8.4, https://matplotlib.org/</dc:title>
     </cc:Agent>
    </dc:creator>
   </cc:Work>
  </rdf:RDF>
 </metadata>
 <defs>
  <style type="text/css">*{stroke-linejoin: round; stroke-linecap: butt}</style>
 </defs>
 <g id="figure_1">
  <g id="patch_1">
   <path d="M 0 345.6 
L 460.8 345.6 
L 460.8 0 
L 0 0 
z
" style="fill: #ffffff"/>
  </g>
  <g id="axes_1">
   <g id="patch_2">
    <path d="M 66.71 145.591119 
L 450 145.591119 
L 450 10.8 
L 66.71 10.8 
z
" style="fill: #ffffff"/>
   </g>
   <g id="matplotlib.axis_1">
    <g id="xtick_1">
     <g id="line2d_1">
      <defs>
       <path id="mad66afa1cb" d="M 0 0 
L 0 3.5 
" style="stroke: #000000; stroke-width: 0.8"/>
      </defs>
      <g>
       <use xlink:href="#mad66afa1cb" x="84.132273" y="145.591119" style="stroke: #000000; stroke-width: 0.8"/>
      </g>
     </g>
    </g>
    <g id="xtick_2">
     <g id="line2d_2">
      <g>
       <use xlink:href="#mad66afa1cb" x="127.47126" y="145.591119" style="stroke: #000000; stroke-width: 0.8"/>
      </g>
     </g>
    </g>
    <g id="xtick_3">
     <g id="line2d_3">
      <g>
       <use xlink:href="#mad66afa1cb" x="170.810246" y="145.591119" style="stroke: #000000; stroke-width: 0.8"/>
      </g>
     </g>
    </g>
    <g id="xtick_4">
     <g id="line2d_4">
      <g>
       <use xlink:href="#mad66afa1cb" x="214.149233" y="145.591119" style="stroke: #000000; stroke-width: 0.8"/>
      </g>
     </g>
    </g>
    <g id="xtick_5">
     <g id="line2d_5">
      <g>
       <use xlink:href="#mad66afa1cb" x="257.48822" y="145.591119" style="stroke: #000000; stroke-width: 0.8"/>
      </g>
     </g>
    </g>
    <g id="xtick_6">
     <g id="line2d_6">
      <g>
       <use xlink:href="#mad66afa1cb" x="300.827207" y="145.591119" style="stroke: #000000; stroke-width: 0.8"/>
      </g>
     </g>
    </g>
    <g id="xtick_7">
     <g id="line2d_7">
      <g>
       <use xlink:href="#mad66afa1cb" x="344.166194" y="145.591119" style="stroke: #000000; stroke-width: 0.8"/>
      </g>
     </g>
    </g>
    <g id="xtick_8">
     <g id="line2d_8">
      <g>
       <use xlink:href="#mad66afa1cb" x="387.505181" y="145.591119" style="stroke: #000000; stroke-width: 0.8"/>
      </g>
     </g>
    </g>
    <g id="xtick_9">
     <g id="line2d_9">
      <g>
       <use xlink:href="#mad66afa1cb" x="430.844168" y="145.591119" style="stroke: #000000; stroke-width: 0.8"/>
      </g>
     </g>
    </g>
   </g>
   <g id="matplotlib.axis_2">
    <g id="ytick_1">
     <g id="line2d_10">
      <defs>
       <path id="m8274af3e4c" d="M 0 0 
L -3.5 0 
" style="stroke: #000000; stroke-width: 0.8"/>
      </defs>
      <g>
       <use xlink:href="#m8274af3e4c" x="66.71" y="142.223304" style="stroke: #000000; stroke-width: 0.8"/>
      </g>
     </g>
     <g id="text_1">
      <!-- 0.00 -->
      <g transform="translate(28.538125 147.542211) scale(0.14 -0.14)">
       <defs>
        <path id="DejaVuSans-30" d="M 2034 4250 
Q 1547 4250 1301 3770 
Q 1056 3291 1056 2328 
Q 1056 1369 1301 889 
Q 1547 409 2034 409 
Q 2525 409 2770 889 
Q 3016 1369 3016 2328 
Q 3016 3291 2770 3770 
Q 2525 4250 2034 4250 
z
M 2034 4750 
Q 2819 4750 3233 4129 
Q 3647 3509 3647 2328 
Q 3647 1150 3233 529 
Q 2819 -91 2034 -91 
Q 1250 -91 836 529 
Q 422 1150 422 2328 
Q 422 3509 836 4129 
Q 1250 4750 2034 4750 
z
" transform="scale(0.015625)"/>
        <path id="DejaVuSans-2e" d="M 684 794 
L 1344 794 
L 1344 0 
L 684 0 
L 684 794 
z
" transform="scale(0.015625)"/>
       </defs>
       <use xlink:href="#DejaVuSans-30"/>
       <use xlink:href="#DejaVuSans-2e" x="63.623047"/>
       <use xlink:href="#DejaVuSans-30" x="95.410156"/>
       <use xlink:href="#DejaVuSans-30" x="159.033203"/>
      </g>
     </g>
    </g>
    <g id="ytick_2">
     <g id="line2d_11">
      <g>
       <use xlink:href="#m8274af3e4c" x="66.71" y="108.350497" style="stroke: #000000; stroke-width: 0.8"/>
      </g>
     </g>
     <g id="text_2">
      <!-- 0.05 -->
      <g transform="translate(28.538125 113.669403) scale(0.14 -0.14)">
       <defs>
        <path id="DejaVuSans-35" d="M 691 4666 
L 3169 4666 
L 3169 4134 
L 1269 4134 
L 1269 2991 
Q 1406 3038 1543 3061 
Q 1681 3084 1819 3084 
Q 2600 3084 3056 2656 
Q 3513 2228 3513 1497 
Q 3513 744 3044 326 
Q 2575 -91 1722 -91 
Q 1428 -91 1123 -41 
Q 819 9 494 109 
L 494 744 
Q 775 591 1075 516 
Q 1375 441 1709 441 
Q 2250 441 2565 725 
Q 2881 1009 2881 1497 
Q 2881 1984 2565 2268 
Q 2250 2553 1709 2553 
Q 1456 2553 1204 2497 
Q 953 2441 691 2322 
L 691 4666 
z
" transform="scale(0.015625)"/>
       </defs>
       <use xlink:href="#DejaVuSans-30"/>
       <use xlink:href="#DejaVuSans-2e" x="63.623047"/>
       <use xlink:href="#DejaVuSans-30" x="95.410156"/>
       <use xlink:href="#DejaVuSans-35" x="159.033203"/>
      </g>
     </g>
    </g>
    <g id="ytick_3">
     <g id="line2d_12">
      <g>
       <use xlink:href="#m8274af3e4c" x="66.71" y="74.477689" style="stroke: #000000; stroke-width: 0.8"/>
      </g>
     </g>
     <g id="text_3">
      <!-- 0.10 -->
      <g transform="translate(28.538125 79.796596) scale(0.14 -0.14)">
       <defs>
        <path id="DejaVuSans-31" d="M 794 531 
L 1825 531 
L 1825 4091 
L 703 3866 
L 703 4441 
L 1819 4666 
L 2450 4666 
L 2450 531 
L 3481 531 
L 3481 0 
L 794 0 
L 794 531 
z
" transform="scale(0.015625)"/>
       </defs>
       <use xlink:href="#DejaVuSans-30"/>
       <use xlink:href="#DejaVuSans-2e" x="63.623047"/>
       <use xlink:href="#DejaVuSans-31" x="95.410156"/>
       <use xlink:href="#DejaVuSans-30" x="159.033203"/>
      </g>
     </g>
    </g>
    <g id="ytick_4">
     <g id="line2d_13">
      <g>
       <use xlink:href="#m8274af3e4c" x="66.71" y="40.604882" style="stroke: #000000; stroke-width: 0.8"/>
      </g>
     </g>
     <g id="text_4">
      <!-- 0.15 -->
      <g transform="translate(28.538125 45.923788) scale(0.14 -0.14)">
       <use xlink:href="#DejaVuSans-30"/>
       <use xlink:href="#DejaVuSans-2e" x="63.623047"/>
       <use xlink:href="#DejaVuSans-31" x="95.410156"/>
       <use xlink:href="#DejaVuSans-35" x="159.033203"/>
      </g>
     </g>
    </g>
    <g id="text_5">
     <!-- Tumour density -->
     <g transform="translate(21.626562 132.154622) rotate(-90) scale(0.14 -0.14)">
      <defs>
       <path id="DejaVuSans-54" d="M -19 4666 
L 3928 4666 
L 3928 4134 
L 2272 4134 
L 2272 0 
L 1638 0 
L 1638 4134 
L -19 4134 
L -19 4666 
z
" transform="scale(0.015625)"/>
       <path id="DejaVuSans-75" d="M 544 1381 
L 544 3500 
L 1119 3500 
L 1119 1403 
Q 1119 906 1312 657 
Q 1506 409 1894 409 
Q 2359 409 2629 706 
Q 2900 1003 2900 1516 
L 2900 3500 
L 3475 3500 
L 3475 0 
L 2900 0 
L 2900 538 
Q 2691 219 2414 64 
Q 2138 -91 1772 -91 
Q 1169 -91 856 284 
Q 544 659 544 1381 
z
M 1991 3584 
L 1991 3584 
z
" transform="scale(0.015625)"/>
       <path id="DejaVuSans-6d" d="M 3328 2828 
Q 3544 3216 3844 3400 
Q 4144 3584 4550 3584 
Q 5097 3584 5394 3201 
Q 5691 2819 5691 2113 
L 5691 0 
L 5113 0 
L 5113 2094 
Q 5113 2597 4934 2840 
Q 4756 3084 4391 3084 
Q 3944 3084 3684 2787 
Q 3425 2491 3425 1978 
L 3425 0 
L 2847 0 
L 2847 2094 
Q 2847 2600 2669 2842 
Q 2491 3084 2119 3084 
Q 1678 3084 1418 2786 
Q 1159 2488 1159 1978 
L 1159 0 
L 581 0 
L 581 3500 
L 1159 3500 
L 1159 2956 
Q 1356 3278 1631 3431 
Q 1906 3584 2284 3584 
Q 2666 3584 2933 3390 
Q 3200 3197 3328 2828 
z
" transform="scale(0.015625)"/>
       <path id="DejaVuSans-6f" d="M 1959 3097 
Q 1497 3097 1228 2736 
Q 959 2375 959 1747 
Q 959 1119 1226 758 
Q 1494 397 1959 397 
Q 2419 397 2687 759 
Q 2956 1122 2956 1747 
Q 2956 2369 2687 2733 
Q 2419 3097 1959 3097 
z
M 1959 3584 
Q 2709 3584 3137 3096 
Q 3566 2609 3566 1747 
Q 3566 888 3137 398 
Q 2709 -91 1959 -91 
Q 1206 -91 779 398 
Q 353 888 353 1747 
Q 353 2609 779 3096 
Q 1206 3584 1959 3584 
z
" transform="scale(0.015625)"/>
       <path id="DejaVuSans-72" d="M 2631 2963 
Q 2534 3019 2420 3045 
Q 2306 3072 2169 3072 
Q 1681 3072 1420 2755 
Q 1159 2438 1159 1844 
L 1159 0 
L 581 0 
L 581 3500 
L 1159 3500 
L 1159 2956 
Q 1341 3275 1631 3429 
Q 1922 3584 2338 3584 
Q 2397 3584 2469 3576 
Q 2541 3569 2628 3553 
L 2631 2963 
z
" transform="scale(0.015625)"/>
       <path id="DejaVuSans-20" transform="scale(0.015625)"/>
       <path id="DejaVuSans-64" d="M 2906 2969 
L 2906 4863 
L 3481 4863 
L 3481 0 
L 2906 0 
L 2906 525 
Q 2725 213 2448 61 
Q 2172 -91 1784 -91 
Q 1150 -91 751 415 
Q 353 922 353 1747 
Q 353 2572 751 3078 
Q 1150 3584 1784 3584 
Q 2172 3584 2448 3432 
Q 2725 3281 2906 2969 
z
M 947 1747 
Q 947 1113 1208 752 
Q 1469 391 1925 391 
Q 2381 391 2643 752 
Q 2906 1113 2906 1747 
Q 2906 2381 2643 2742 
Q 2381 3103 1925 3103 
Q 1469 3103 1208 2742 
Q 947 2381 947 1747 
z
" transform="scale(0.015625)"/>
       <path id="DejaVuSans-65" d="M 3597 1894 
L 3597 1613 
L 953 1613 
Q 991 1019 1311 708 
Q 1631 397 2203 397 
Q 2534 397 2845 478 
Q 3156 559 3463 722 
L 3463 178 
Q 3153 47 2828 -22 
Q 2503 -91 2169 -91 
Q 1331 -91 842 396 
Q 353 884 353 1716 
Q 353 2575 817 3079 
Q 1281 3584 2069 3584 
Q 2775 3584 3186 3129 
Q 3597 2675 3597 1894 
z
M 3022 2063 
Q 3016 2534 2758 2815 
Q 2500 3097 2075 3097 
Q 1594 3097 1305 2825 
Q 1016 2553 972 2059 
L 3022 2063 
z
" transform="scale(0.015625)"/>
       <path id="DejaVuSans-6e" d="M 3513 2113 
L 3513 0 
L 2938 0 
L 2938 2094 
Q 2938 2591 2744 2837 
Q 2550 3084 2163 3084 
Q 1697 3084 1428 2787 
Q 1159 2491 1159 1978 
L 1159 0 
L 581 0 
L 581 3500 
L 1159 3500 
L 1159 2956 
Q 1366 3272 1645 3428 
Q 1925 3584 2291 3584 
Q 2894 3584 3203 3211 
Q 3513 2838 3513 2113 
z
" transform="scale(0.015625)"/>
       <path id="DejaVuSans-73" d="M 2834 3397 
L 2834 2853 
Q 2591 2978 2328 3040 
Q 2066 3103 1784 3103 
Q 1356 3103 1142 2972 
Q 928 2841 928 2578 
Q 928 2378 1081 2264 
Q 1234 2150 1697 2047 
L 1894 2003 
Q 2506 1872 2764 1633 
Q 3022 1394 3022 966 
Q 3022 478 2636 193 
Q 2250 -91 1575 -91 
Q 1294 -91 989 -36 
Q 684 19 347 128 
L 347 722 
Q 666 556 975 473 
Q 1284 391 1588 391 
Q 1994 391 2212 530 
Q 2431 669 2431 922 
Q 2431 1156 2273 1281 
Q 2116 1406 1581 1522 
L 1381 1569 
Q 847 1681 609 1914 
Q 372 2147 372 2553 
Q 372 3047 722 3315 
Q 1072 3584 1716 3584 
Q 2034 3584 2315 3537 
Q 2597 3491 2834 3397 
z
" transform="scale(0.015625)"/>
       <path id="DejaVuSans-69" d="M 603 3500 
L 1178 3500 
L 1178 0 
L 603 0 
L 603 3500 
z
M 603 4863 
L 1178 4863 
L 1178 4134 
L 603 4134 
L 603 4863 
z
" transform="scale(0.015625)"/>
       <path id="DejaVuSans-74" d="M 1172 4494 
L 1172 3500 
L 2356 3500 
L 2356 3053 
L 1172 3053 
L 1172 1153 
Q 1172 725 1289 603 
Q 1406 481 1766 481 
L 2356 481 
L 2356 0 
L 1766 0 
Q 1100 0 847 248 
Q 594 497 594 1153 
L 594 3053 
L 172 3053 
L 172 3500 
L 594 3500 
L 594 4494 
L 1172 4494 
z
" transform="scale(0.015625)"/>
       <path id="DejaVuSans-79" d="M 2059 -325 
Q 1816 -950 1584 -1140 
Q 1353 -1331 966 -1331 
L 506 -1331 
L 506 -850 
L 844 -850 
Q 1081 -850 1212 -737 
Q 1344 -625 1503 -206 
L 1606 56 
L 191 3500 
L 800 3500 
L 1894 763 
L 2988 3500 
L 3597 3500 
L 2059 -325 
z
" transform="scale(0.015625)"/>
      </defs>
      <use xlink:href="#DejaVuSans-54"/>
      <use xlink:href="#DejaVuSans-75" x="45.958984"/>
      <use xlink:href="#DejaVuSans-6d" x="109.337891"/>
      <use xlink:href="#DejaVuSans-6f" x="206.75"/>
      <use xlink:href="#DejaVuSans-75" x="267.931641"/>
      <use xlink:href="#DejaVuSans-72" x="331.310547"/>
      <use xlink:href="#DejaVuSans-20" x="372.423828"/>
      <use xlink:href="#DejaVuSans-64" x="404.210938"/>
      <use xlink:href="#DejaVuSans-65" x="467.6875"/>
      <use xlink:href="#DejaVuSans-6e" x="529.210938"/>
      <use xlink:href="#DejaVuSans-73" x="592.589844"/>
      <use xlink:href="#DejaVuSans-69" x="644.689453"/>
      <use xlink:href="#DejaVuSans-74" x="672.472656"/>
      <use xlink:href="#DejaVuSans-79" x="711.681641"/>
     </g>
    </g>
   </g>
   <g id="line2d_14">
    <path d="M 84.132273 74.477689 
L 117.069903 70.249622 
L 150.007533 65.790756 
L 181.211603 61.346036 
L 212.415674 56.679636 
L 243.619744 51.784817 
L 274.823815 46.655144 
L 304.294326 41.589341 
L 333.764837 36.303906 
L 363.235348 30.794515 
L 392.705859 25.057324 
L 422.17637 19.089028 
L 432.577727 16.926869 
L 432.577727 16.926869 
" clip-path="url(#p697e454af8)" style="fill: none; stroke: #1f77b4; stroke-opacity: 0.25; stroke-width: 1.5; stroke-linecap: square"/>
   </g>
   <g id="line2d_15">
    <defs>
     <path id="mc6157834ab" d="M 0 -3.5 
L -0.785799 -1.081559 
L -3.328698 -1.081559 
L -1.271449 0.413119 
L -2.057248 2.831559 
L -0 1.336881 
L 2.057248 2.831559 
L 1.271449 0.413119 
L 3.328698 -1.081559 
L 0.785799 -1.081559 
z
" style="stroke: #ff0000; stroke-linejoin: bevel"/>
    </defs>
    <g clip-path="url(#p697e454af8)">
     <use xlink:href="#mc6157834ab" x="430.844168" y="17.289256" style="fill: #ff0000; stroke: #ff0000; stroke-linejoin: bevel"/>
    </g>
   </g>
   <g id="line2d_16">
    <defs>
     <path id="m4fe1ce0b18" d="M 0 -3.5 
L -0.785799 -1.081559 
L -3.328698 -1.081559 
L -1.271449 0.413119 
L -2.057248 2.831559 
L -0 1.336881 
L 2.057248 2.831559 
L 1.271449 0.413119 
L 3.328698 -1.081559 
L 0.785799 -1.081559 
z
" style="stroke: #008000; stroke-linejoin: bevel"/>
    </defs>
    <g clip-path="url(#p697e454af8)">
     <use xlink:href="#m4fe1ce0b18" x="432.577727" y="16.926869" style="fill: #008000; stroke: #008000; stroke-linejoin: bevel"/>
    </g>
   </g>
   <g id="line2d_17">
    <path d="M 84.132273 74.477689 
L 117.069903 70.249622 
L 150.007533 65.790756 
L 181.211603 61.346036 
L 212.415674 56.679636 
L 243.619744 51.784817 
L 274.823815 46.655144 
L 304.294326 41.589341 
L 333.764837 36.303906 
L 363.235348 30.794515 
L 392.705859 25.057324 
L 422.17637 19.089028 
L 430.844168 17.289256 
L 432.577727 86.606941 
L 432.577727 86.606941 
" clip-path="url(#p697e454af8)" style="fill: none; stroke: #1f77b4; stroke-opacity: 0.25; stroke-width: 1.5; stroke-linecap: square"/>
   </g>
   <g id="line2d_18">
    <g clip-path="url(#p697e454af8)">
     <use xlink:href="#mc6157834ab" x="430.844168" y="17.289256" style="fill: #ff0000; stroke: #ff0000; stroke-linejoin: bevel"/>
    </g>
   </g>
   <g id="line2d_19">
    <g clip-path="url(#p697e454af8)">
     <use xlink:href="#m4fe1ce0b18" x="432.577727" y="86.606941" style="fill: #008000; stroke: #008000; stroke-linejoin: bevel"/>
    </g>
   </g>
   <g id="line2d_20">
    <path d="M 84.132273 74.477689 
L 117.069903 70.249622 
L 150.007533 65.790756 
L 181.211603 61.346036 
L 212.415674 56.679636 
L 243.619744 51.784817 
L 274.823815 46.655144 
L 304.294326 41.589341 
L 333.764837 36.303906 
L 363.235348 30.794515 
L 392.705859 25.057324 
L 422.17637 19.089028 
L 430.844168 17.289256 
L 432.577727 123.391681 
L 432.577727 123.391681 
" clip-path="url(#p697e454af8)" style="fill: none; stroke: #1f77b4; stroke-opacity: 0.25; stroke-width: 1.5; stroke-linecap: square"/>
   </g>
   <g id="line2d_21">
    <g clip-path="url(#p697e454af8)">
     <use xlink:href="#mc6157834ab" x="430.844168" y="17.289256" style="fill: #ff0000; stroke: #ff0000; stroke-linejoin: bevel"/>
    </g>
   </g>
   <g id="line2d_22">
    <g clip-path="url(#p697e454af8)">
     <use xlink:href="#m4fe1ce0b18" x="432.577727" y="123.391681" style="fill: #008000; stroke: #008000; stroke-linejoin: bevel"/>
    </g>
   </g>
   <g id="line2d_23">
    <path d="M 84.132273 74.477689 
L 117.069903 70.249622 
L 150.007533 65.790756 
L 181.211603 61.346036 
L 212.415674 56.679636 
L 243.619744 51.784817 
L 274.823815 46.655144 
L 304.294326 41.589341 
L 333.764837 36.303906 
L 363.235348 30.794515 
L 392.705859 25.057324 
L 422.17637 19.089028 
L 430.844168 17.289256 
L 432.577727 137.359297 
L 432.577727 137.359297 
" clip-path="url(#p697e454af8)" style="fill: none; stroke: #1f77b4; stroke-opacity: 0.25; stroke-width: 1.5; stroke-linecap: square"/>
   </g>
   <g id="line2d_24">
    <g clip-path="url(#p697e454af8)">
     <use xlink:href="#mc6157834ab" x="430.844168" y="17.289256" style="fill: #ff0000; stroke: #ff0000; stroke-linejoin: bevel"/>
    </g>
   </g>
   <g id="line2d_25">
    <g clip-path="url(#p697e454af8)">
     <use xlink:href="#m4fe1ce0b18" x="432.577727" y="137.359297" style="fill: #008000; stroke: #008000; stroke-linejoin: bevel"/>
    </g>
   </g>
   <g id="line2d_26">
    <path d="M 84.132273 74.477689 
L 117.069903 70.252803 
L 150.007533 65.804318 
L 182.945163 61.124583 
L 214.149233 56.47113 
L 245.353304 51.597465 
L 276.557374 46.497893 
L 307.761445 41.167106 
L 338.965516 35.600257 
L 368.436027 30.122025 
L 397.906538 24.426235 
L 427.377049 18.510287 
L 432.577727 17.443282 
L 432.577727 17.443282 
" clip-path="url(#p697e454af8)" style="fill: none; stroke: #ff7f0e; stroke-opacity: 0.25; stroke-width: 1.5; stroke-linecap: square"/>
   </g>
   <g id="line2d_27">
    <g clip-path="url(#p697e454af8)">
     <use xlink:href="#mc6157834ab" x="430.844168" y="17.79972" style="fill: #ff0000; stroke: #ff0000; stroke-linejoin: bevel"/>
    </g>
   </g>
   <g id="line2d_28">
    <g clip-path="url(#p697e454af8)">
     <use xlink:href="#m4fe1ce0b18" x="432.577727" y="17.443282" style="fill: #008000; stroke: #008000; stroke-linejoin: bevel"/>
    </g>
   </g>
   <g id="line2d_29">
    <path d="M 84.132273 74.477689 
L 117.069903 70.252803 
L 150.007533 65.804318 
L 182.945163 61.124583 
L 214.149233 56.47113 
L 245.353304 51.597465 
L 276.557374 46.497893 
L 307.761445 41.167106 
L 338.965516 35.600257 
L 368.436027 30.122025 
L 397.906538 24.426235 
L 427.377049 18.510287 
L 430.844168 17.79972 
L 432.577727 110.528798 
L 432.577727 110.528798 
" clip-path="url(#p697e454af8)" style="fill: none; stroke: #ff7f0e; stroke-opacity: 0.25; stroke-width: 1.5; stroke-linecap: square"/>
   </g>
   <g id="line2d_30">
    <g clip-path="url(#p697e454af8)">
     <use xlink:href="#mc6157834ab" x="430.844168" y="17.79972" style="fill: #ff0000; stroke: #ff0000; stroke-linejoin: bevel"/>
    </g>
   </g>
   <g id="line2d_31">
    <g clip-path="url(#p697e454af8)">
     <use xlink:href="#m4fe1ce0b18" x="432.577727" y="110.528798" style="fill: #008000; stroke: #008000; stroke-linejoin: bevel"/>
    </g>
   </g>
   <g id="line2d_32">
    <path d="M 84.132273 74.477689 
L 117.069903 70.252803 
L 150.007533 65.804318 
L 182.945163 61.124583 
L 214.149233 56.47113 
L 245.353304 51.597465 
L 276.557374 46.497893 
L 307.761445 41.167106 
L 338.965516 35.600257 
L 368.436027 30.122025 
L 397.906538 24.426235 
L 427.377049 18.510287 
L 430.844168 17.79972 
L 432.577727 131.541218 
L 432.577727 131.541218 
" clip-path="url(#p697e454af8)" style="fill: none; stroke: #ff7f0e; stroke-opacity: 0.25; stroke-width: 1.5; stroke-linecap: square"/>
   </g>
   <g id="line2d_33">
    <g clip-path="url(#p697e454af8)">
     <use xlink:href="#mc6157834ab" x="430.844168" y="17.79972" style="fill: #ff0000; stroke: #ff0000; stroke-linejoin: bevel"/>
    </g>
   </g>
   <g id="line2d_34">
    <g clip-path="url(#p697e454af8)">
     <use xlink:href="#m4fe1ce0b18" x="432.577727" y="131.541218" style="fill: #008000; stroke: #008000; stroke-linejoin: bevel"/>
    </g>
   </g>
   <g id="line2d_35">
    <path d="M 84.132273 74.477689 
L 117.069903 70.252803 
L 150.007533 65.804318 
L 182.945163 61.124583 
L 214.149233 56.47113 
L 245.353304 51.597465 
L 276.557374 46.497893 
L 307.761445 41.167106 
L 338.965516 35.600257 
L 368.436027 30.122025 
L 397.906538 24.426235 
L 427.377049 18.510287 
L 430.844168 17.79972 
L 432.577727 139.46425 
L 432.577727 139.46425 
" clip-path="url(#p697e454af8)" style="fill: none; stroke: #ff7f0e; stroke-opacity: 0.25; stroke-width: 1.5; stroke-linecap: square"/>
   </g>
   <g id="line2d_36">
    <g clip-path="url(#p697e454af8)">
     <use xlink:href="#mc6157834ab" x="430.844168" y="17.79972" style="fill: #ff0000; stroke: #ff0000; stroke-linejoin: bevel"/>
    </g>
   </g>
   <g id="line2d_37">
    <g clip-path="url(#p697e454af8)">
     <use xlink:href="#m4fe1ce0b18" x="432.577727" y="139.46425" style="fill: #008000; stroke: #008000; stroke-linejoin: bevel"/>
    </g>
   </g>
   <g id="patch_3">
    <path d="M 66.71 145.591119 
L 66.71 10.8 
" style="fill: none; stroke: #000000; stroke-width: 0.8; stroke-linejoin: miter; stroke-linecap: square"/>
   </g>
   <g id="patch_4">
    <path d="M 450 145.591119 
L 450 10.8 
" style="fill: none; stroke: #000000; stroke-width: 0.8; stroke-linejoin: miter; stroke-linecap: square"/>
   </g>
   <g id="patch_5">
    <path d="M 66.71 145.591119 
L 450 145.591119 
" style="fill: none; stroke: #000000; stroke-width: 0.8; stroke-linejoin: miter; stroke-linecap: square"/>
   </g>
   <g id="patch_6">
    <path d="M 66.71 10.8 
L 450 10.8 
" style="fill: none; stroke: #000000; stroke-width: 0.8; stroke-linejoin: miter; stroke-linecap: square"/>
   </g>
   <g id="legend_1">
    <g id="patch_7">
     <path d="M 75.11 55.67625 
L 178.19 55.67625 
Q 180.59 55.67625 180.59 53.27625 
L 180.59 19.2 
Q 180.59 16.8 178.19 16.8 
L 75.11 16.8 
Q 72.71 16.8 72.71 19.2 
L 72.71 53.27625 
Q 72.71 55.67625 75.11 55.67625 
z
" style="fill: #ffffff; opacity: 0.8; stroke: #cccccc; stroke-linejoin: miter"/>
    </g>
    <g id="line2d_38">
     <path d="M 77.51 26.518125 
L 89.51 26.518125 
L 101.51 26.518125 
" style="fill: none; stroke: #1f77b4; stroke-width: 1.5; stroke-linecap: square"/>
    </g>
    <g id="text_6">
     <!-- $\psi = 0$ -->
     <g transform="translate(111.11 30.718125) scale(0.12 -0.12)">
      <defs>
       <path id="DejaVuSans-Oblique-3c8" d="M 1591 -78 
Q 891 38 616 341 
Q 278 713 425 1472 
L 819 3500 
L 1400 3500 
L 1009 1494 
Q 900 922 1119 684 
Q 1313 478 1691 434 
L 2284 3500 
L 2856 3500 
L 2263 438 
Q 2681 481 2928 688 
Q 3247 950 3353 1497 
L 3741 3500 
L 4322 3500 
L 3928 1475 
Q 3775 688 3300 344 
Q 2872 34 2163 -75 
L 1919 -1331 
L 1347 -1331 
L 1591 -78 
z
" transform="scale(0.015625)"/>
       <path id="DejaVuSans-3d" d="M 678 2906 
L 4684 2906 
L 4684 2381 
L 678 2381 
L 678 2906 
z
M 678 1631 
L 4684 1631 
L 4684 1100 
L 678 1100 
L 678 1631 
z
" transform="scale(0.015625)"/>
      </defs>
      <use xlink:href="#DejaVuSans-Oblique-3c8" transform="translate(0 0.78125)"/>
      <use xlink:href="#DejaVuSans-3d" transform="translate(85.449219 0.78125)"/>
      <use xlink:href="#DejaVuSans-30" transform="translate(188.720703 0.78125)"/>
     </g>
    </g>
    <g id="line2d_39">
     <path d="M 77.51 44.15625 
L 89.51 44.15625 
L 101.51 44.15625 
" style="fill: none; stroke: #ff7f0e; stroke-width: 1.5; stroke-linecap: square"/>
    </g>
    <g id="text_7">
     <!-- $\psi = 0.0085$ -->
     <g transform="translate(111.11 48.35625) scale(0.12 -0.12)">
      <defs>
       <path id="DejaVuSans-38" d="M 2034 2216 
Q 1584 2216 1326 1975 
Q 1069 1734 1069 1313 
Q 1069 891 1326 650 
Q 1584 409 2034 409 
Q 2484 409 2743 651 
Q 3003 894 3003 1313 
Q 3003 1734 2745 1975 
Q 2488 2216 2034 2216 
z
M 1403 2484 
Q 997 2584 770 2862 
Q 544 3141 544 3541 
Q 544 4100 942 4425 
Q 1341 4750 2034 4750 
Q 2731 4750 3128 4425 
Q 3525 4100 3525 3541 
Q 3525 3141 3298 2862 
Q 3072 2584 2669 2484 
Q 3125 2378 3379 2068 
Q 3634 1759 3634 1313 
Q 3634 634 3220 271 
Q 2806 -91 2034 -91 
Q 1263 -91 848 271 
Q 434 634 434 1313 
Q 434 1759 690 2068 
Q 947 2378 1403 2484 
z
M 1172 3481 
Q 1172 3119 1398 2916 
Q 1625 2713 2034 2713 
Q 2441 2713 2670 2916 
Q 2900 3119 2900 3481 
Q 2900 3844 2670 4047 
Q 2441 4250 2034 4250 
Q 1625 4250 1398 4047 
Q 1172 3844 1172 3481 
z
" transform="scale(0.015625)"/>
      </defs>
      <use xlink:href="#DejaVuSans-Oblique-3c8" transform="translate(0 0.78125)"/>
      <use xlink:href="#DejaVuSans-3d" transform="translate(85.449219 0.78125)"/>
      <use xlink:href="#DejaVuSans-30" transform="translate(188.720703 0.78125)"/>
      <use xlink:href="#DejaVuSans-2e" transform="translate(252.34375 0.78125)"/>
      <use xlink:href="#DejaVuSans-30" transform="translate(284.130859 0.78125)"/>
      <use xlink:href="#DejaVuSans-30" transform="translate(347.753906 0.78125)"/>
      <use xlink:href="#DejaVuSans-38" transform="translate(411.376953 0.78125)"/>
      <use xlink:href="#DejaVuSans-35" transform="translate(475 0.78125)"/>
     </g>
    </g>
   </g>
  </g>
  <g id="axes_2">
   <g id="patch_8">
    <path d="M 66.71 296.44 
L 450 296.44 
L 450 161.648881 
L 66.71 161.648881 
z
" style="fill: #ffffff"/>
   </g>
   <g id="matplotlib.axis_3">
    <g id="xtick_10">
     <g id="line2d_40">
      <g>
       <use xlink:href="#mad66afa1cb" x="84.132273" y="296.44" style="stroke: #000000; stroke-width: 0.8"/>
      </g>
     </g>
     <g id="text_8">
      <!-- 0.00 -->
      <g transform="translate(68.546335 314.077812) scale(0.14 -0.14)">
       <use xlink:href="#DejaVuSans-30"/>
       <use xlink:href="#DejaVuSans-2e" x="63.623047"/>
       <use xlink:href="#DejaVuSans-30" x="95.410156"/>
       <use xlink:href="#DejaVuSans-30" x="159.033203"/>
      </g>
     </g>
    </g>
    <g id="xtick_11">
     <g id="line2d_41">
      <g>
       <use xlink:href="#mad66afa1cb" x="127.47126" y="296.44" style="stroke: #000000; stroke-width: 0.8"/>
      </g>
     </g>
     <g id="text_9">
      <!-- 0.25 -->
      <g transform="translate(111.885322 314.077812) scale(0.14 -0.14)">
       <defs>
        <path id="DejaVuSans-32" d="M 1228 531 
L 3431 531 
L 3431 0 
L 469 0 
L 469 531 
Q 828 903 1448 1529 
Q 2069 2156 2228 2338 
Q 2531 2678 2651 2914 
Q 2772 3150 2772 3378 
Q 2772 3750 2511 3984 
Q 2250 4219 1831 4219 
Q 1534 4219 1204 4116 
Q 875 4013 500 3803 
L 500 4441 
Q 881 4594 1212 4672 
Q 1544 4750 1819 4750 
Q 2544 4750 2975 4387 
Q 3406 4025 3406 3419 
Q 3406 3131 3298 2873 
Q 3191 2616 2906 2266 
Q 2828 2175 2409 1742 
Q 1991 1309 1228 531 
z
" transform="scale(0.015625)"/>
       </defs>
       <use xlink:href="#DejaVuSans-30"/>
       <use xlink:href="#DejaVuSans-2e" x="63.623047"/>
       <use xlink:href="#DejaVuSans-32" x="95.410156"/>
       <use xlink:href="#DejaVuSans-35" x="159.033203"/>
      </g>
     </g>
    </g>
    <g id="xtick_12">
     <g id="line2d_42">
      <g>
       <use xlink:href="#mad66afa1cb" x="170.810246" y="296.44" style="stroke: #000000; stroke-width: 0.8"/>
      </g>
     </g>
     <g id="text_10">
      <!-- 0.50 -->
      <g transform="translate(155.224309 314.077812) scale(0.14 -0.14)">
       <use xlink:href="#DejaVuSans-30"/>
       <use xlink:href="#DejaVuSans-2e" x="63.623047"/>
       <use xlink:href="#DejaVuSans-35" x="95.410156"/>
       <use xlink:href="#DejaVuSans-30" x="159.033203"/>
      </g>
     </g>
    </g>
    <g id="xtick_13">
     <g id="line2d_43">
      <g>
       <use xlink:href="#mad66afa1cb" x="214.149233" y="296.44" style="stroke: #000000; stroke-width: 0.8"/>
      </g>
     </g>
     <g id="text_11">
      <!-- 0.75 -->
      <g transform="translate(198.563296 314.077812) scale(0.14 -0.14)">
       <defs>
        <path id="DejaVuSans-37" d="M 525 4666 
L 3525 4666 
L 3525 4397 
L 1831 0 
L 1172 0 
L 2766 4134 
L 525 4134 
L 525 4666 
z
" transform="scale(0.015625)"/>
       </defs>
       <use xlink:href="#DejaVuSans-30"/>
       <use xlink:href="#DejaVuSans-2e" x="63.623047"/>
       <use xlink:href="#DejaVuSans-37" x="95.410156"/>
       <use xlink:href="#DejaVuSans-35" x="159.033203"/>
      </g>
     </g>
    </g>
    <g id="xtick_14">
     <g id="line2d_44">
      <g>
       <use xlink:href="#mad66afa1cb" x="257.48822" y="296.44" style="stroke: #000000; stroke-width: 0.8"/>
      </g>
     </g>
     <g id="text_12">
      <!-- 1.00 -->
      <g transform="translate(241.902283 314.077812) scale(0.14 -0.14)">
       <use xlink:href="#DejaVuSans-31"/>
       <use xlink:href="#DejaVuSans-2e" x="63.623047"/>
       <use xlink:href="#DejaVuSans-30" x="95.410156"/>
       <use xlink:href="#DejaVuSans-30" x="159.033203"/>
      </g>
     </g>
    </g>
    <g id="xtick_15">
     <g id="line2d_45">
      <g>
       <use xlink:href="#mad66afa1cb" x="300.827207" y="296.44" style="stroke: #000000; stroke-width: 0.8"/>
      </g>
     </g>
     <g id="text_13">
      <!-- 1.25 -->
      <g transform="translate(285.24127 314.077812) scale(0.14 -0.14)">
       <use xlink:href="#DejaVuSans-31"/>
       <use xlink:href="#DejaVuSans-2e" x="63.623047"/>
       <use xlink:href="#DejaVuSans-32" x="95.410156"/>
       <use xlink:href="#DejaVuSans-35" x="159.033203"/>
      </g>
     </g>
    </g>
    <g id="xtick_16">
     <g id="line2d_46">
      <g>
       <use xlink:href="#mad66afa1cb" x="344.166194" y="296.44" style="stroke: #000000; stroke-width: 0.8"/>
      </g>
     </g>
     <g id="text_14">
      <!-- 1.50 -->
      <g transform="translate(328.580257 314.077812) scale(0.14 -0.14)">
       <use xlink:href="#DejaVuSans-31"/>
       <use xlink:href="#DejaVuSans-2e" x="63.623047"/>
       <use xlink:href="#DejaVuSans-35" x="95.410156"/>
       <use xlink:href="#DejaVuSans-30" x="159.033203"/>
      </g>
     </g>
    </g>
    <g id="xtick_17">
     <g id="line2d_47">
      <g>
       <use xlink:href="#mad66afa1cb" x="387.505181" y="296.44" style="stroke: #000000; stroke-width: 0.8"/>
      </g>
     </g>
     <g id="text_15">
      <!-- 1.75 -->
      <g transform="translate(371.919243 314.077812) scale(0.14 -0.14)">
       <use xlink:href="#DejaVuSans-31"/>
       <use xlink:href="#DejaVuSans-2e" x="63.623047"/>
       <use xlink:href="#DejaVuSans-37" x="95.410156"/>
       <use xlink:href="#DejaVuSans-35" x="159.033203"/>
      </g>
     </g>
    </g>
    <g id="xtick_18">
     <g id="line2d_48">
      <g>
       <use xlink:href="#mad66afa1cb" x="430.844168" y="296.44" style="stroke: #000000; stroke-width: 0.8"/>
      </g>
     </g>
     <g id="text_16">
      <!-- 2.00 -->
      <g transform="translate(415.25823 314.077812) scale(0.14 -0.14)">
       <use xlink:href="#DejaVuSans-32"/>
       <use xlink:href="#DejaVuSans-2e" x="63.623047"/>
       <use xlink:href="#DejaVuSans-30" x="95.410156"/>
       <use xlink:href="#DejaVuSans-30" x="159.033203"/>
      </g>
     </g>
    </g>
    <g id="text_17">
     <!-- Time (days) -->
     <g transform="translate(217.017813 331.627187) scale(0.14 -0.14)">
      <defs>
       <path id="DejaVuSans-28" d="M 1984 4856 
Q 1566 4138 1362 3434 
Q 1159 2731 1159 2009 
Q 1159 1288 1364 580 
Q 1569 -128 1984 -844 
L 1484 -844 
Q 1016 -109 783 600 
Q 550 1309 550 2009 
Q 550 2706 781 3412 
Q 1013 4119 1484 4856 
L 1984 4856 
z
" transform="scale(0.015625)"/>
       <path id="DejaVuSans-61" d="M 2194 1759 
Q 1497 1759 1228 1600 
Q 959 1441 959 1056 
Q 959 750 1161 570 
Q 1363 391 1709 391 
Q 2188 391 2477 730 
Q 2766 1069 2766 1631 
L 2766 1759 
L 2194 1759 
z
M 3341 1997 
L 3341 0 
L 2766 0 
L 2766 531 
Q 2569 213 2275 61 
Q 1981 -91 1556 -91 
Q 1019 -91 701 211 
Q 384 513 384 1019 
Q 384 1609 779 1909 
Q 1175 2209 1959 2209 
L 2766 2209 
L 2766 2266 
Q 2766 2663 2505 2880 
Q 2244 3097 1772 3097 
Q 1472 3097 1187 3025 
Q 903 2953 641 2809 
L 641 3341 
Q 956 3463 1253 3523 
Q 1550 3584 1831 3584 
Q 2591 3584 2966 3190 
Q 3341 2797 3341 1997 
z
" transform="scale(0.015625)"/>
       <path id="DejaVuSans-29" d="M 513 4856 
L 1013 4856 
Q 1481 4119 1714 3412 
Q 1947 2706 1947 2009 
Q 1947 1309 1714 600 
Q 1481 -109 1013 -844 
L 513 -844 
Q 928 -128 1133 580 
Q 1338 1288 1338 2009 
Q 1338 2731 1133 3434 
Q 928 4138 513 4856 
z
" transform="scale(0.015625)"/>
      </defs>
      <use xlink:href="#DejaVuSans-54"/>
      <use xlink:href="#DejaVuSans-69" x="57.958984"/>
      <use xlink:href="#DejaVuSans-6d" x="85.742188"/>
      <use xlink:href="#DejaVuSans-65" x="183.154297"/>
      <use xlink:href="#DejaVuSans-20" x="244.677734"/>
      <use xlink:href="#DejaVuSans-28" x="276.464844"/>
      <use xlink:href="#DejaVuSans-64" x="315.478516"/>
      <use xlink:href="#DejaVuSans-61" x="378.955078"/>
      <use xlink:href="#DejaVuSans-79" x="440.234375"/>
      <use xlink:href="#DejaVuSans-73" x="499.414062"/>
      <use xlink:href="#DejaVuSans-29" x="551.513672"/>
     </g>
    </g>
   </g>
   <g id="matplotlib.axis_4">
    <g id="ytick_5">
     <g id="line2d_49">
      <g>
       <use xlink:href="#m8274af3e4c" x="66.71" y="281.654506" style="stroke: #000000; stroke-width: 0.8"/>
      </g>
     </g>
     <g id="text_18">
      <!-- 0.6 -->
      <g transform="translate(37.445625 286.973412) scale(0.14 -0.14)">
       <defs>
        <path id="DejaVuSans-36" d="M 2113 2584 
Q 1688 2584 1439 2293 
Q 1191 2003 1191 1497 
Q 1191 994 1439 701 
Q 1688 409 2113 409 
Q 2538 409 2786 701 
Q 3034 994 3034 1497 
Q 3034 2003 2786 2293 
Q 2538 2584 2113 2584 
z
M 3366 4563 
L 3366 3988 
Q 3128 4100 2886 4159 
Q 2644 4219 2406 4219 
Q 1781 4219 1451 3797 
Q 1122 3375 1075 2522 
Q 1259 2794 1537 2939 
Q 1816 3084 2150 3084 
Q 2853 3084 3261 2657 
Q 3669 2231 3669 1497 
Q 3669 778 3244 343 
Q 2819 -91 2113 -91 
Q 1303 -91 875 529 
Q 447 1150 447 2328 
Q 447 3434 972 4092 
Q 1497 4750 2381 4750 
Q 2619 4750 2861 4703 
Q 3103 4656 3366 4563 
z
" transform="scale(0.015625)"/>
       </defs>
       <use xlink:href="#DejaVuSans-30"/>
       <use xlink:href="#DejaVuSans-2e" x="63.623047"/>
       <use xlink:href="#DejaVuSans-36" x="95.410156"/>
      </g>
     </g>
    </g>
    <g id="ytick_6">
     <g id="line2d_50">
      <g>
       <use xlink:href="#m8274af3e4c" x="66.71" y="224.715128" style="stroke: #000000; stroke-width: 0.8"/>
      </g>
     </g>
     <g id="text_19">
      <!-- 0.8 -->
      <g transform="translate(37.445625 230.034034) scale(0.14 -0.14)">
       <use xlink:href="#DejaVuSans-30"/>
       <use xlink:href="#DejaVuSans-2e" x="63.623047"/>
       <use xlink:href="#DejaVuSans-38" x="95.410156"/>
      </g>
     </g>
    </g>
    <g id="ytick_7">
     <g id="line2d_51">
      <g>
       <use xlink:href="#m8274af3e4c" x="66.71" y="167.77575" style="stroke: #000000; stroke-width: 0.8"/>
      </g>
     </g>
     <g id="text_20">
      <!-- 1.0 -->
      <g transform="translate(37.445625 173.094656) scale(0.14 -0.14)">
       <use xlink:href="#DejaVuSans-31"/>
       <use xlink:href="#DejaVuSans-2e" x="63.623047"/>
       <use xlink:href="#DejaVuSans-30" x="95.410156"/>
      </g>
     </g>
    </g>
    <g id="text_21">
     <!-- Stem fraction -->
     <g transform="translate(30.534063 276.471628) rotate(-90) scale(0.14 -0.14)">
      <defs>
       <path id="DejaVuSans-53" d="M 3425 4513 
L 3425 3897 
Q 3066 4069 2747 4153 
Q 2428 4238 2131 4238 
Q 1616 4238 1336 4038 
Q 1056 3838 1056 3469 
Q 1056 3159 1242 3001 
Q 1428 2844 1947 2747 
L 2328 2669 
Q 3034 2534 3370 2195 
Q 3706 1856 3706 1288 
Q 3706 609 3251 259 
Q 2797 -91 1919 -91 
Q 1588 -91 1214 -16 
Q 841 59 441 206 
L 441 856 
Q 825 641 1194 531 
Q 1563 422 1919 422 
Q 2459 422 2753 634 
Q 3047 847 3047 1241 
Q 3047 1584 2836 1778 
Q 2625 1972 2144 2069 
L 1759 2144 
Q 1053 2284 737 2584 
Q 422 2884 422 3419 
Q 422 4038 858 4394 
Q 1294 4750 2059 4750 
Q 2388 4750 2728 4690 
Q 3069 4631 3425 4513 
z
" transform="scale(0.015625)"/>
       <path id="DejaVuSans-66" d="M 2375 4863 
L 2375 4384 
L 1825 4384 
Q 1516 4384 1395 4259 
Q 1275 4134 1275 3809 
L 1275 3500 
L 2222 3500 
L 2222 3053 
L 1275 3053 
L 1275 0 
L 697 0 
L 697 3053 
L 147 3053 
L 147 3500 
L 697 3500 
L 697 3744 
Q 697 4328 969 4595 
Q 1241 4863 1831 4863 
L 2375 4863 
z
" transform="scale(0.015625)"/>
       <path id="DejaVuSans-63" d="M 3122 3366 
L 3122 2828 
Q 2878 2963 2633 3030 
Q 2388 3097 2138 3097 
Q 1578 3097 1268 2742 
Q 959 2388 959 1747 
Q 959 1106 1268 751 
Q 1578 397 2138 397 
Q 2388 397 2633 464 
Q 2878 531 3122 666 
L 3122 134 
Q 2881 22 2623 -34 
Q 2366 -91 2075 -91 
Q 1284 -91 818 406 
Q 353 903 353 1747 
Q 353 2603 823 3093 
Q 1294 3584 2113 3584 
Q 2378 3584 2631 3529 
Q 2884 3475 3122 3366 
z
" transform="scale(0.015625)"/>
      </defs>
      <use xlink:href="#DejaVuSans-53"/>
      <use xlink:href="#DejaVuSans-74" x="63.476562"/>
      <use xlink:href="#DejaVuSans-65" x="102.685547"/>
      <use xlink:href="#DejaVuSans-6d" x="164.208984"/>
      <use xlink:href="#DejaVuSans-20" x="261.621094"/>
      <use xlink:href="#DejaVuSans-66" x="293.408203"/>
      <use xlink:href="#DejaVuSans-72" x="328.613281"/>
      <use xlink:href="#DejaVuSans-61" x="369.726562"/>
      <use xlink:href="#DejaVuSans-63" x="431.005859"/>
      <use xlink:href="#DejaVuSans-74" x="485.986328"/>
      <use xlink:href="#DejaVuSans-69" x="525.195312"/>
      <use xlink:href="#DejaVuSans-6f" x="552.978516"/>
      <use xlink:href="#DejaVuSans-6e" x="614.160156"/>
     </g>
    </g>
   </g>
   <g id="line2d_52">
    <path d="M 84.132273 167.77575 
L 432.577727 167.77575 
L 432.577727 167.77575 
" clip-path="url(#pe9651097e7)" style="fill: none; stroke: #1f77b4; stroke-width: 1.5; stroke-linecap: square"/>
   </g>
   <g id="line2d_53">
    <path d="M 84.132273 167.77575 
L 432.577727 167.77575 
L 432.577727 167.77575 
" clip-path="url(#pe9651097e7)" style="fill: none; stroke: #1f77b4; stroke-width: 1.5; stroke-linecap: square"/>
   </g>
   <g id="line2d_54">
    <path d="M 84.132273 167.77575 
L 432.577727 167.77575 
L 432.577727 167.77575 
" clip-path="url(#pe9651097e7)" style="fill: none; stroke: #1f77b4; stroke-width: 1.5; stroke-linecap: square"/>
   </g>
   <g id="line2d_55">
    <path d="M 84.132273 167.77575 
L 432.577727 167.77575 
L 432.577727 167.77575 
" clip-path="url(#pe9651097e7)" style="fill: none; stroke: #1f77b4; stroke-width: 1.5; stroke-linecap: square"/>
   </g>
   <g id="line2d_56">
    <path d="M 84.132273 167.77575 
L 99.734308 175.214754 
L 117.069903 183.218603 
L 134.405498 190.956147 
L 151.741092 198.436538 
L 169.076687 205.668592 
L 186.412282 212.660801 
L 203.747877 219.421345 
L 221.083471 225.958108 
L 240.152626 232.89914 
L 259.22178 239.588315 
L 278.290934 246.034977 
L 297.360088 252.248108 
L 316.429242 258.236334 
L 335.498397 264.007947 
L 356.30111 270.066563 
L 377.103824 275.886801 
L 397.906538 281.478175 
L 418.709251 286.8498 
L 432.577727 290.313131 
L 432.577727 290.313131 
" clip-path="url(#pe9651097e7)" style="fill: none; stroke: #ff7f0e; stroke-width: 1.5; stroke-linecap: square"/>
   </g>
   <g id="line2d_57">
    <path d="M 84.132273 167.77575 
L 99.734308 175.214754 
L 117.069903 183.218603 
L 134.405498 190.956147 
L 151.741092 198.436538 
L 169.076687 205.668592 
L 186.412282 212.660801 
L 203.747877 219.421345 
L 221.083471 225.958108 
L 240.152626 232.89914 
L 259.22178 239.588315 
L 278.290934 246.034977 
L 297.360088 252.248108 
L 316.429242 258.236334 
L 335.498397 264.007947 
L 356.30111 270.066563 
L 377.103824 275.886801 
L 397.906538 281.478175 
L 418.709251 286.8498 
L 430.844168 289.885257 
L 432.577727 169.093841 
L 432.577727 169.093841 
" clip-path="url(#pe9651097e7)" style="fill: none; stroke: #ff7f0e; stroke-width: 1.5; stroke-linecap: square"/>
   </g>
   <g id="line2d_58">
    <path d="M 84.132273 167.77575 
L 99.734308 175.214754 
L 117.069903 183.218603 
L 134.405498 190.956147 
L 151.741092 198.436538 
L 169.076687 205.668592 
L 186.412282 212.660801 
L 203.747877 219.421345 
L 221.083471 225.958108 
L 240.152626 232.89914 
L 259.22178 239.588315 
L 278.290934 246.034977 
L 297.360088 252.248108 
L 316.429242 258.236334 
L 335.498397 264.007947 
L 356.30111 270.066563 
L 377.103824 275.886801 
L 397.906538 281.478175 
L 418.709251 286.8498 
L 430.844168 289.885257 
L 432.577727 167.777245 
L 432.577727 167.777245 
" clip-path="url(#pe9651097e7)" style="fill: none; stroke: #ff7f0e; stroke-width: 1.5; stroke-linecap: square"/>
   </g>
   <g id="line2d_59">
    <path d="M 84.132273 167.77575 
L 99.734308 175.214754 
L 117.069903 183.218603 
L 134.405498 190.956147 
L 151.741092 198.436538 
L 169.076687 205.668592 
L 186.412282 212.660801 
L 203.747877 219.421345 
L 221.083471 225.958108 
L 240.152626 232.89914 
L 259.22178 239.588315 
L 278.290934 246.034977 
L 297.360088 252.248108 
L 316.429242 258.236334 
L 335.498397 264.007947 
L 356.30111 270.066563 
L 377.103824 275.886801 
L 397.906538 281.478175 
L 418.709251 286.8498 
L 430.844168 289.885257 
L 432.577727 167.77575 
L 432.577727 167.77575 
" clip-path="url(#pe9651097e7)" style="fill: none; stroke: #ff7f0e; stroke-width: 1.5; stroke-linecap: square"/>
   </g>
   <g id="patch_9">
    <path d="M 66.71 296.44 
L 66.71 161.648881 
" style="fill: none; stroke: #000000; stroke-width: 0.8; stroke-linejoin: miter; stroke-linecap: square"/>
   </g>
   <g id="patch_10">
    <path d="M 450 296.44 
L 450 161.648881 
" style="fill: none; stroke: #000000; stroke-width: 0.8; stroke-linejoin: miter; stroke-linecap: square"/>
   </g>
   <g id="patch_11">
    <path d="M 66.71 296.44 
L 450 296.44 
" style="fill: none; stroke: #000000; stroke-width: 0.8; stroke-linejoin: miter; stroke-linecap: square"/>
   </g>
   <g id="patch_12">
    <path d="M 66.71 161.648881 
L 450 161.648881 
" style="fill: none; stroke: #000000; stroke-width: 0.8; stroke-linejoin: miter; stroke-linecap: square"/>
   </g>
  </g>
 </g>
 <defs>
  <clipPath id="p697e454af8">
   <rect x="66.71" y="10.8" width="383.29" height="134.791119"/>
  </clipPath>
  <clipPath id="pe9651097e7">
   <rect x="66.71" y="161.648881" width="383.29" height="134.791119"/>
  </clipPath>
 </defs>
</svg>
